<svg id="svg" version="1.1" xmlns="http://www.w3.org/2000/svg" xmlns:xlink="http://www.w3.org/1999/xlink" width="400" height="400.80160320641284" viewBox="0, 0, 400,400.80160320641284"><g id="svgg"><path id="path0" d="M146.200 149.200 C 146.064 149.420,145.254 149.600,144.400 149.600 C 143.546 149.600,142.736 149.780,142.600 150.000 C 142.464 150.220,141.823 150.400,141.176 150.400 C 140.529 150.400,140.000 150.580,140.000 150.800 C 140.000 151.020,139.655 151.200,139.233 151.200 C 138.812 151.200,138.407 151.367,138.333 151.570 C 138.260 151.774,137.942 151.999,137.627 152.070 C 136.902 152.235,132.000 157.046,132.000 157.593 C 132.000 158.288,132.285 158.077,134.880 155.456 C 136.266 154.056,137.985 152.662,138.700 152.358 C 139.415 152.054,140.000 151.669,140.000 151.502 C 140.000 151.336,140.540 151.200,141.200 151.200 C 141.860 151.200,142.400 151.020,142.400 150.800 C 142.400 150.580,143.300 150.400,144.400 150.400 C 145.500 150.400,146.400 150.220,146.400 150.000 C 146.400 149.756,148.237 149.598,151.100 149.594 C 154.282 149.590,155.606 149.463,155.200 149.200 C 154.403 148.685,146.518 148.685,146.200 149.200 M156.000 150.000 C 156.000 150.220,156.799 150.400,157.776 150.400 C 158.753 150.400,159.664 150.580,159.800 150.800 C 159.936 151.020,160.487 151.200,161.024 151.200 C 161.561 151.200,162.000 151.380,162.000 151.600 C 162.000 151.820,162.360 152.000,162.800 152.000 C 163.240 152.000,163.600 152.180,163.600 152.400 C 163.600 152.620,163.878 152.800,164.217 152.800 C 164.939 152.800,168.974 156.897,169.832 158.500 C 170.156 159.105,170.579 159.600,170.773 159.600 C 170.967 159.600,171.036 159.940,170.928 160.355 C 170.819 160.770,170.926 161.231,171.165 161.378 C 171.404 161.526,171.600 162.002,171.600 162.436 C 171.600 162.870,171.850 163.321,172.156 163.438 C 172.461 163.556,172.629 163.968,172.528 164.354 C 172.427 164.740,172.616 165.281,172.948 165.557 C 173.281 165.833,173.454 166.314,173.335 166.626 C 173.215 166.938,173.404 167.304,173.756 167.438 C 174.187 167.604,174.321 167.977,174.167 168.587 C 174.011 169.211,174.149 169.572,174.612 169.749 C 174.994 169.896,175.187 170.258,175.058 170.592 C 174.935 170.914,175.114 171.457,175.456 171.799 C 175.798 172.141,175.987 172.657,175.876 172.947 C 175.765 173.236,175.828 173.721,176.015 174.025 C 176.290 174.469,176.413 174.432,176.642 173.836 C 176.798 173.428,176.718 172.760,176.463 172.352 C 176.208 171.945,176.000 171.336,176.000 171.000 C 176.000 170.664,175.841 170.077,175.647 169.695 C 175.452 169.313,175.071 168.460,174.800 167.800 C 174.529 167.140,174.148 166.287,173.953 165.905 C 173.759 165.523,173.600 164.936,173.600 164.600 C 173.600 164.264,173.440 163.677,173.244 163.295 C 173.048 162.913,172.463 161.700,171.944 160.600 C 171.425 159.500,170.865 158.540,170.700 158.467 C 170.535 158.393,170.400 158.074,170.400 157.758 C 170.400 156.015,162.908 150.400,160.583 150.400 C 160.068 150.400,159.536 150.220,159.400 150.000 C 159.264 149.780,158.443 149.600,157.576 149.600 C 156.709 149.600,156.000 149.780,156.000 150.000 M286.800 150.121 C 285.399 151.277,284.664 154.022,285.600 154.600 C 285.863 154.763,286.000 171.147,286.000 202.452 C 286.000 243.642,286.079 250.136,286.584 250.641 C 287.062 251.119,288.733 251.217,295.840 251.184 C 305.314 251.140,305.802 251.024,305.493 248.902 L 305.332 247.800 305.016 249.100 L 304.700 250.400 296.321 250.400 C 289.593 250.400,287.830 250.287,287.371 249.829 C 286.882 249.339,286.800 242.133,286.800 199.829 L 286.800 150.400 289.267 150.400 C 292.155 150.400,292.204 150.205,289.400 149.867 C 288.073 149.706,287.198 149.792,286.800 150.121 M188.100 150.667 C 187.935 150.704,187.125 150.847,186.300 150.985 L 184.800 151.236 184.800 160.400 L 184.800 169.564 186.100 169.797 C 186.815 169.925,193.970 169.976,202.000 169.910 L 216.600 169.790 201.300 169.695 L 186.000 169.600 186.000 160.400 L 186.000 151.200 214.467 151.200 C 230.123 151.200,242.798 151.065,242.633 150.900 C 242.391 150.658,189.153 150.431,188.100 150.667 M243.200 151.600 C 243.200 151.823,244.275 152.000,245.624 152.000 C 247.137 152.000,247.954 151.850,247.800 151.600 C 247.664 151.380,246.573 151.200,245.376 151.200 C 244.179 151.200,243.200 151.380,243.200 151.600 M248.800 152.400 C 248.800 152.620,249.520 152.800,250.400 152.800 C 251.280 152.800,252.000 152.980,252.000 153.200 C 252.000 153.420,252.540 153.600,253.200 153.600 C 253.860 153.600,254.400 153.780,254.400 154.000 C 254.400 154.220,254.760 154.400,255.200 154.400 C 255.640 154.400,256.000 154.580,256.000 154.800 C 256.000 155.020,256.360 155.200,256.800 155.200 C 257.240 155.200,257.600 155.336,257.600 155.502 C 257.600 155.669,258.185 156.061,258.900 156.375 C 260.406 157.035,265.958 162.480,266.778 164.100 C 267.085 164.705,267.485 165.200,267.668 165.200 C 267.850 165.200,268.000 165.560,268.000 166.000 C 268.000 166.440,268.180 166.800,268.400 166.800 C 268.620 166.800,268.800 167.250,268.800 167.800 C 268.800 168.350,268.980 168.800,269.200 168.800 C 269.420 168.800,269.600 169.250,269.600 169.800 C 269.600 170.350,269.780 170.800,270.000 170.800 C 270.220 170.800,270.400 171.520,270.400 172.400 C 270.400 173.280,270.580 174.000,270.800 174.000 C 271.020 174.000,271.200 173.381,271.200 172.624 C 271.200 171.867,271.020 171.136,270.800 171.000 C 270.580 170.864,270.400 170.313,270.400 169.776 C 270.400 169.239,270.220 168.800,270.000 168.800 C 269.780 168.800,269.596 168.395,269.591 167.900 C 269.586 167.405,269.230 166.550,268.800 166.000 C 268.370 165.450,268.014 164.775,268.009 164.500 C 268.004 164.225,267.820 164.000,267.600 164.000 C 267.380 164.000,267.200 163.719,267.200 163.375 C 267.200 162.604,260.541 156.000,259.763 156.000 C 259.454 156.000,259.200 155.820,259.200 155.600 C 259.200 155.380,258.840 155.200,258.400 155.200 C 257.960 155.200,257.600 155.020,257.600 154.800 C 257.600 154.580,257.240 154.400,256.800 154.400 C 256.360 154.400,256.000 154.220,256.000 154.000 C 256.000 153.780,255.640 153.600,255.200 153.600 C 254.760 153.600,254.400 153.420,254.400 153.200 C 254.400 152.980,253.871 152.800,253.224 152.800 C 252.577 152.800,251.936 152.620,251.800 152.400 C 251.664 152.180,250.933 152.000,250.176 152.000 C 249.419 152.000,248.800 152.180,248.800 152.400 M130.900 158.998 C 130.625 159.311,130.400 159.844,130.400 160.183 C 130.400 160.522,130.220 160.800,130.000 160.800 C 129.780 160.800,129.600 161.250,129.600 161.800 C 129.600 162.350,129.780 162.800,130.000 162.800 C 130.220 162.800,130.400 162.440,130.400 162.000 C 130.400 161.560,130.580 161.200,130.800 161.200 C 131.020 161.200,131.200 160.840,131.200 160.400 C 131.200 159.960,131.380 159.600,131.600 159.600 C 131.820 159.600,132.000 159.330,132.000 159.000 C 132.000 158.254,131.556 158.253,130.900 158.998 M128.800 163.976 C 128.800 164.403,128.980 164.864,129.200 165.000 C 129.427 165.140,129.600 164.804,129.600 164.224 C 129.600 163.661,129.420 163.200,129.200 163.200 C 128.980 163.200,128.800 163.549,128.800 163.976 M128.000 166.000 C 128.000 166.660,127.820 167.200,127.600 167.200 C 127.380 167.200,127.200 167.549,127.200 167.976 C 127.200 168.403,127.020 168.864,126.800 169.000 C 126.580 169.136,126.400 169.687,126.400 170.224 C 126.400 170.761,126.220 171.200,126.000 171.200 C 125.780 171.200,125.600 171.549,125.600 171.976 C 125.600 172.403,125.420 172.864,125.200 173.000 C 124.980 173.136,124.800 173.676,124.800 174.200 C 124.800 174.724,124.620 175.264,124.400 175.400 C 124.180 175.536,124.000 175.997,124.000 176.424 C 124.000 176.851,124.180 177.200,124.400 177.200 C 124.620 177.200,124.800 176.750,124.800 176.200 C 124.800 175.650,124.980 175.200,125.200 175.200 C 125.420 175.200,125.600 174.750,125.600 174.200 C 125.600 173.650,125.780 173.200,126.000 173.200 C 126.220 173.200,126.400 172.750,126.400 172.200 C 126.400 171.650,126.580 171.200,126.800 171.200 C 127.020 171.200,127.200 170.750,127.200 170.200 C 127.200 169.650,127.380 169.200,127.600 169.200 C 127.820 169.200,128.000 168.750,128.000 168.200 C 128.000 167.650,128.180 167.200,128.400 167.200 C 128.620 167.200,128.800 166.660,128.800 166.000 C 128.800 165.340,128.620 164.800,128.400 164.800 C 128.180 164.800,128.000 165.340,128.000 166.000 M148.617 168.124 C 147.444 168.837,146.800 169.492,146.800 169.971 C 146.800 170.207,146.620 170.400,146.400 170.400 C 146.180 170.400,146.000 170.749,146.000 171.176 C 146.000 171.603,145.804 172.074,145.565 172.222 C 145.326 172.369,145.216 172.818,145.321 173.219 C 145.426 173.621,145.262 174.044,144.956 174.162 C 144.248 174.433,144.224 176.000,144.928 176.000 C 145.222 176.000,145.697 175.114,146.000 174.000 C 146.300 172.900,146.692 172.000,146.872 172.000 C 147.053 172.000,147.200 171.671,147.200 171.270 C 147.200 170.868,147.617 170.148,148.126 169.670 C 149.783 168.113,154.400 168.814,154.400 170.623 C 154.400 170.940,154.559 171.200,154.753 171.200 C 154.948 171.200,155.241 171.605,155.404 172.100 L 155.702 173.000 155.890 172.013 C 155.994 171.470,155.881 170.960,155.639 170.880 C 155.398 170.799,155.200 170.465,155.200 170.138 C 155.200 169.373,154.116 168.281,153.645 168.572 C 153.446 168.695,153.181 168.526,153.054 168.198 C 152.774 167.466,149.780 167.416,148.617 168.124 M239.200 169.578 L 235.000 169.800 239.851 170.094 C 246.499 170.497,252.000 173.984,252.000 177.795 C 252.000 178.128,252.270 178.400,252.600 178.400 C 252.973 178.400,253.200 178.022,253.200 177.400 C 253.200 176.850,253.020 176.400,252.800 176.400 C 252.580 176.400,252.400 176.132,252.400 175.805 C 252.400 175.163,251.461 173.876,250.240 172.843 C 249.822 172.489,249.177 171.930,248.806 171.600 C 247.636 170.558,246.451 170.005,245.867 170.229 C 245.557 170.349,245.196 170.166,245.064 169.823 C 244.933 169.480,244.504 169.235,244.113 169.278 C 243.721 169.321,241.510 169.456,239.200 169.578 M156.300 173.028 C 155.856 173.479,155.936 175.200,156.400 175.200 C 156.620 175.200,156.800 175.549,156.800 175.976 C 156.800 176.403,156.980 176.864,157.200 177.000 C 157.420 177.136,157.600 177.687,157.600 178.224 C 157.600 178.761,157.780 179.200,158.000 179.200 C 158.220 179.200,158.400 178.750,158.400 178.200 C 158.400 177.650,158.220 177.200,158.000 177.200 C 157.780 177.200,157.600 176.750,157.600 176.200 C 157.600 175.650,157.431 175.200,157.225 175.200 C 157.019 175.200,156.794 174.643,156.725 173.962 C 156.656 173.281,156.465 172.861,156.300 173.028 M176.677 175.229 C 176.543 175.739,176.686 176.135,177.054 176.276 C 177.380 176.401,177.553 176.745,177.440 177.040 C 177.327 177.335,177.505 177.848,177.837 178.179 C 178.168 178.511,178.385 179.082,178.320 179.450 C 178.254 179.817,178.425 180.196,178.700 180.292 C 179.016 180.402,179.200 180.087,179.200 179.433 C 179.200 178.865,179.020 178.400,178.800 178.400 C 178.580 178.400,178.400 178.051,178.400 177.624 C 178.400 177.197,178.220 176.736,178.000 176.600 C 177.780 176.464,177.600 176.014,177.600 175.600 C 177.600 174.524,176.931 174.255,176.677 175.229 M271.200 181.200 C 271.200 185.663,271.339 187.961,271.600 187.800 C 271.839 187.652,272.000 185.004,272.000 181.200 C 272.000 177.396,271.839 174.748,271.600 174.600 C 271.339 174.439,271.200 176.737,271.200 181.200 M143.709 177.174 C 143.831 177.641,143.673 178.040,143.310 178.179 C 142.917 178.330,142.775 178.754,142.899 179.405 C 143.026 180.071,142.909 180.400,142.545 180.400 C 142.230 180.400,142.000 180.823,142.000 181.400 C 142.000 181.950,141.799 182.400,141.553 182.400 C 141.293 182.400,141.186 182.816,141.298 183.400 C 141.426 184.071,141.310 184.400,140.945 184.400 C 140.630 184.400,140.400 184.823,140.400 185.400 C 140.400 185.950,140.199 186.400,139.953 186.400 C 139.693 186.400,139.586 186.816,139.698 187.400 C 139.826 188.071,139.710 188.400,139.345 188.400 C 139.030 188.400,138.800 188.823,138.800 189.400 C 138.800 189.950,138.599 190.400,138.353 190.400 C 138.095 190.400,137.986 190.813,138.094 191.380 C 138.209 191.979,138.071 192.441,137.741 192.567 C 137.443 192.682,137.200 193.130,137.200 193.564 C 137.200 193.998,137.004 194.474,136.765 194.622 C 136.526 194.769,136.416 195.218,136.521 195.619 C 136.626 196.021,136.462 196.444,136.156 196.562 C 135.850 196.679,135.600 197.321,135.600 197.987 L 135.600 199.200 143.957 199.200 C 151.209 199.200,152.347 199.284,152.557 199.833 C 153.072 201.174,152.823 211.883,152.267 212.345 C 151.912 212.639,147.989 212.823,140.567 212.894 L 129.400 213.000 129.432 213.900 C 129.449 214.398,129.226 214.800,128.932 214.800 C 128.631 214.800,128.400 215.235,128.400 215.800 C 128.400 216.350,128.199 216.800,127.953 216.800 C 127.693 216.800,127.586 217.216,127.698 217.800 C 127.826 218.471,127.710 218.800,127.345 218.800 C 127.030 218.800,126.800 219.223,126.800 219.800 C 126.800 220.350,126.599 220.800,126.353 220.800 C 126.095 220.800,125.986 221.213,126.094 221.780 C 126.209 222.379,126.071 222.841,125.741 222.967 C 125.443 223.082,125.200 223.530,125.200 223.964 C 125.200 224.398,125.020 224.864,124.800 225.000 C 124.580 225.136,124.400 225.687,124.400 226.224 C 124.400 226.761,124.220 227.200,124.000 227.200 C 123.780 227.200,123.600 227.650,123.600 228.200 C 123.600 228.750,123.420 229.200,123.200 229.200 C 122.980 229.200,122.800 229.650,122.800 230.200 C 122.800 230.750,122.599 231.200,122.353 231.200 C 122.093 231.200,121.986 231.616,122.098 232.200 C 122.226 232.871,122.110 233.200,121.745 233.200 C 121.430 233.200,121.200 233.623,121.200 234.200 C 121.200 234.750,121.020 235.200,120.800 235.200 C 120.580 235.200,120.400 235.562,120.400 236.005 C 120.400 236.448,120.220 237.168,120.000 237.605 C 119.780 238.042,119.420 238.758,119.200 239.195 C 118.980 239.632,118.800 240.352,118.800 240.795 C 118.800 241.238,118.620 241.600,118.400 241.600 C 118.180 241.600,118.000 241.960,118.000 242.400 C 118.000 243.693,119.072 243.316,119.419 241.900 C 119.595 241.185,119.721 240.340,119.701 240.021 C 119.680 239.703,119.891 239.253,120.170 239.021 C 120.448 238.790,120.902 237.970,121.179 237.200 C 121.455 236.430,121.867 235.350,122.094 234.800 C 122.656 233.439,123.632 230.914,123.794 230.400 C 123.876 230.141,124.785 228.047,125.303 226.927 C 125.525 226.447,125.604 225.787,125.478 225.460 C 125.353 225.133,125.474 224.780,125.747 224.676 C 126.020 224.571,126.490 223.701,126.792 222.743 C 127.093 221.784,127.488 220.829,127.670 220.620 C 127.851 220.411,128.000 220.004,128.000 219.716 C 128.000 219.427,128.335 218.428,128.743 217.496 C 129.152 216.563,129.688 215.305,129.935 214.700 L 130.383 213.600 141.768 213.600 C 149.393 213.600,153.240 213.459,153.416 213.174 C 153.678 212.751,153.790 198.855,153.534 198.602 C 153.460 198.529,149.665 198.416,145.100 198.351 C 138.819 198.260,136.800 198.110,136.800 197.734 C 136.800 197.224,137.159 196.264,138.457 193.304 C 138.865 192.372,139.200 191.347,139.200 191.028 C 139.200 190.709,139.380 190.336,139.600 190.200 C 139.820 190.064,140.000 189.691,140.000 189.372 C 140.000 188.840,141.148 185.979,142.033 184.305 C 142.235 183.923,142.400 183.248,142.400 182.805 C 142.400 182.362,142.580 182.000,142.800 182.000 C 143.020 182.000,143.200 181.728,143.200 181.395 C 143.200 181.062,143.380 180.432,143.600 179.995 C 143.820 179.558,144.180 178.842,144.400 178.405 C 144.990 177.234,144.887 176.400,144.153 176.400 C 143.711 176.400,143.571 176.644,143.709 177.174 M123.200 178.400 C 123.200 178.840,123.020 179.200,122.800 179.200 C 122.580 179.200,122.400 179.740,122.400 180.400 C 122.400 181.060,122.220 181.600,122.000 181.600 C 121.780 181.600,121.600 181.949,121.600 182.376 C 121.600 182.803,121.420 183.264,121.200 183.400 C 120.980 183.536,120.800 184.087,120.800 184.624 C 120.800 185.161,120.620 185.600,120.400 185.600 C 120.180 185.600,120.000 185.949,120.000 186.376 C 120.000 186.803,119.820 187.264,119.600 187.400 C 119.380 187.536,119.200 188.087,119.200 188.624 C 119.200 189.161,119.020 189.600,118.800 189.600 C 118.580 189.600,118.400 189.949,118.400 190.376 C 118.400 190.803,118.220 191.264,118.000 191.400 C 117.780 191.536,117.600 192.087,117.600 192.624 C 117.600 193.161,117.420 193.600,117.200 193.600 C 116.980 193.600,116.800 194.050,116.800 194.600 C 116.800 195.150,116.620 195.600,116.400 195.600 C 116.180 195.600,116.000 195.962,116.000 196.405 C 116.000 196.848,115.792 197.613,115.538 198.105 C 114.567 199.982,114.400 200.407,114.400 200.995 C 114.400 201.328,114.220 201.600,114.000 201.600 C 113.780 201.600,113.600 202.050,113.600 202.600 C 113.600 203.150,113.420 203.600,113.200 203.600 C 112.980 203.600,112.800 203.962,112.800 204.405 C 112.800 205.183,112.658 205.569,111.662 207.495 C 111.408 207.987,111.200 208.662,111.200 208.995 C 111.200 209.328,111.020 209.600,110.800 209.600 C 110.580 209.600,110.400 210.039,110.400 210.576 C 110.400 211.113,110.580 211.664,110.800 211.800 C 111.027 211.940,111.200 211.604,111.200 211.024 C 111.200 210.461,111.380 210.000,111.600 210.000 C 111.820 210.000,112.000 209.460,112.000 208.800 C 112.000 208.140,112.180 207.600,112.400 207.600 C 112.620 207.600,112.800 207.240,112.800 206.800 C 112.800 206.360,112.980 206.000,113.200 206.000 C 113.420 206.000,113.600 205.460,113.600 204.800 C 113.600 204.140,113.780 203.600,114.000 203.600 C 114.220 203.600,114.400 203.150,114.400 202.600 C 114.400 202.050,114.580 201.600,114.800 201.600 C 115.020 201.600,115.200 201.150,115.200 200.600 C 115.200 200.050,115.380 199.600,115.600 199.600 C 115.820 199.600,116.000 199.150,116.000 198.600 C 116.000 198.050,116.180 197.600,116.400 197.600 C 116.620 197.600,116.800 197.150,116.800 196.600 C 116.800 196.050,116.980 195.600,117.200 195.600 C 117.420 195.600,117.600 195.150,117.600 194.600 C 117.600 194.050,117.780 193.600,118.000 193.600 C 118.220 193.600,118.400 193.150,118.400 192.600 C 118.400 192.050,118.580 191.600,118.800 191.600 C 119.020 191.600,119.200 191.150,119.200 190.600 C 119.200 190.050,119.380 189.600,119.600 189.600 C 119.820 189.600,120.000 189.150,120.000 188.600 C 120.000 188.050,120.180 187.600,120.400 187.600 C 120.620 187.600,120.800 187.150,120.800 186.600 C 120.800 186.050,120.980 185.600,121.200 185.600 C 121.420 185.600,121.600 185.150,121.600 184.600 C 121.600 184.050,121.780 183.600,122.000 183.600 C 122.220 183.600,122.400 183.150,122.400 182.600 C 122.400 182.050,122.580 181.600,122.800 181.600 C 123.020 181.600,123.200 181.150,123.200 180.600 C 123.200 180.050,123.380 179.600,123.600 179.600 C 123.820 179.600,124.000 179.150,124.000 178.600 C 124.000 178.050,123.820 177.600,123.600 177.600 C 123.380 177.600,123.200 177.960,123.200 178.400 M252.800 182.200 C 252.800 184.600,252.920 185.200,253.400 185.200 C 253.880 185.200,254.000 184.600,254.000 182.200 C 254.000 179.800,253.880 179.200,253.400 179.200 C 252.920 179.200,252.800 179.800,252.800 182.200 M158.400 180.600 C 158.400 181.150,158.580 181.600,158.800 181.600 C 159.020 181.600,159.200 182.039,159.200 182.576 C 159.200 183.113,159.380 183.664,159.600 183.800 C 159.820 183.936,160.000 184.397,160.000 184.824 C 160.000 185.251,160.180 185.600,160.400 185.600 C 160.620 185.600,160.800 186.140,160.800 186.800 C 160.800 187.460,160.980 188.000,161.200 188.000 C 161.420 188.000,161.600 188.349,161.600 188.776 C 161.600 189.203,161.780 189.664,162.000 189.800 C 162.220 189.936,162.400 190.487,162.400 191.024 C 162.400 191.561,162.580 192.000,162.800 192.000 C 163.020 192.000,163.200 192.540,163.200 193.200 C 163.200 193.860,163.380 194.400,163.600 194.400 C 163.820 194.400,164.000 194.839,164.000 195.376 C 164.000 195.913,164.180 196.464,164.400 196.600 C 164.620 196.736,164.800 197.197,164.800 197.624 C 164.800 198.051,164.980 198.400,165.200 198.400 C 165.420 198.400,165.600 198.940,165.600 199.600 C 165.600 200.260,165.780 200.800,166.000 200.800 C 166.220 200.800,166.400 201.149,166.400 201.576 C 166.400 202.003,166.580 202.464,166.800 202.600 C 167.020 202.736,167.200 203.287,167.200 203.824 C 167.200 204.361,167.380 204.800,167.600 204.800 C 167.820 204.800,168.000 205.239,168.000 205.776 C 168.000 206.313,168.180 206.864,168.400 207.000 C 168.620 207.136,168.800 207.676,168.800 208.200 C 168.800 208.724,168.980 209.264,169.200 209.400 C 169.420 209.536,169.600 209.997,169.600 210.424 C 169.600 210.851,169.780 211.200,170.000 211.200 C 170.220 211.200,170.400 211.740,170.400 212.400 C 170.400 213.060,170.580 213.600,170.800 213.600 C 171.020 213.600,171.200 213.960,171.200 214.400 C 171.200 214.840,171.380 215.200,171.600 215.200 C 171.820 215.200,172.000 214.851,172.000 214.424 C 172.000 213.997,171.820 213.536,171.600 213.400 C 171.380 213.264,171.200 212.713,171.200 212.176 C 171.200 211.639,171.020 211.200,170.800 211.200 C 170.580 211.200,170.400 210.750,170.400 210.200 C 170.400 209.650,170.220 209.200,170.000 209.200 C 169.780 209.200,169.600 208.761,169.600 208.224 C 169.600 207.687,169.420 207.136,169.200 207.000 C 168.980 206.864,168.800 206.313,168.800 205.776 C 168.800 205.239,168.620 204.800,168.400 204.800 C 168.180 204.800,168.000 204.350,168.000 203.800 C 168.000 203.250,167.820 202.800,167.600 202.800 C 167.380 202.800,167.200 202.361,167.200 201.824 C 167.200 201.287,167.020 200.736,166.800 200.600 C 166.580 200.464,166.400 199.913,166.400 199.376 C 166.400 198.839,166.220 198.400,166.000 198.400 C 165.780 198.400,165.600 197.950,165.600 197.400 C 165.600 196.850,165.420 196.400,165.200 196.400 C 164.980 196.400,164.800 195.950,164.800 195.400 C 164.800 194.850,164.620 194.400,164.400 194.400 C 164.180 194.400,164.000 193.860,164.000 193.200 C 164.000 192.540,163.820 192.000,163.600 192.000 C 163.380 192.000,163.200 191.550,163.200 191.000 C 163.200 190.450,163.020 190.000,162.800 190.000 C 162.580 190.000,162.400 189.550,162.400 189.000 C 162.400 188.450,162.220 188.000,162.000 188.000 C 161.780 188.000,161.600 187.561,161.600 187.024 C 161.600 186.487,161.420 185.936,161.200 185.800 C 160.980 185.664,160.800 185.113,160.800 184.576 C 160.800 184.039,160.620 183.600,160.400 183.600 C 160.180 183.600,160.000 183.150,160.000 182.600 C 160.000 182.050,159.820 181.600,159.600 181.600 C 159.380 181.600,159.200 181.150,159.200 180.600 C 159.200 180.050,159.020 179.600,158.800 179.600 C 158.580 179.600,158.400 180.050,158.400 180.600 M179.200 181.800 C 179.200 182.350,179.399 182.800,179.643 182.800 C 179.886 182.800,179.984 183.065,179.860 183.388 C 179.736 183.712,179.914 184.257,180.256 184.599 C 180.598 184.941,180.773 185.493,180.646 185.825 C 180.516 186.164,180.674 186.530,181.007 186.658 C 181.342 186.787,181.600 187.389,181.600 188.043 C 181.600 188.679,181.799 189.200,182.043 189.200 C 182.286 189.200,182.384 189.465,182.260 189.788 C 182.136 190.112,182.314 190.657,182.656 190.999 C 182.998 191.341,183.173 191.893,183.046 192.225 C 182.916 192.564,183.074 192.930,183.407 193.058 C 183.733 193.183,184.000 193.716,184.000 194.243 C 184.000 194.769,184.180 195.200,184.400 195.200 C 184.620 195.200,184.800 194.851,184.800 194.424 C 184.800 193.997,184.620 193.536,184.400 193.400 C 184.180 193.264,184.000 192.713,184.000 192.176 C 184.000 191.639,183.820 191.200,183.600 191.200 C 183.380 191.200,183.200 190.838,183.200 190.395 C 183.200 189.952,183.020 189.232,182.800 188.795 C 182.580 188.358,182.220 187.642,182.000 187.205 C 181.780 186.768,181.600 186.048,181.600 185.605 C 181.600 185.162,181.420 184.800,181.200 184.800 C 180.980 184.800,180.800 184.361,180.800 183.824 C 180.800 183.287,180.620 182.736,180.400 182.600 C 180.180 182.464,180.000 182.003,180.000 181.576 C 180.000 181.149,179.820 180.800,179.600 180.800 C 179.380 180.800,179.200 181.250,179.200 181.800 M252.162 186.700 C 252.018 187.415,251.743 188.000,251.550 188.000 C 251.357 188.000,251.196 188.315,251.191 188.700 C 251.171 190.196,246.036 194.400,244.229 194.400 C 243.689 194.400,243.136 194.580,243.000 194.800 C 242.853 195.038,243.329 195.200,244.176 195.200 C 244.959 195.200,245.600 195.020,245.600 194.800 C 245.600 194.580,246.031 194.400,246.557 194.400 C 247.771 194.400,252.400 189.971,252.400 188.810 C 252.400 188.364,252.580 188.000,252.800 188.000 C 253.305 188.000,253.309 186.790,252.806 186.000 C 252.506 185.529,252.368 185.679,252.162 186.700 M270.400 190.400 C 270.400 191.280,270.220 192.000,270.000 192.000 C 269.780 192.000,269.600 192.540,269.600 193.200 C 269.600 193.860,269.420 194.400,269.200 194.400 C 268.980 194.400,268.800 194.850,268.800 195.400 C 268.800 195.950,268.620 196.400,268.400 196.400 C 268.180 196.400,268.000 196.760,268.000 197.200 C 268.000 197.640,267.820 198.000,267.600 198.000 C 267.380 198.000,267.200 198.270,267.200 198.600 C 267.200 198.930,267.020 199.200,266.800 199.200 C 266.580 199.200,266.400 199.393,266.400 199.629 C 266.400 199.864,266.175 200.286,265.900 200.565 C 265.625 200.845,264.950 201.663,264.400 202.383 C 263.850 203.103,263.310 203.807,263.200 203.946 C 263.090 204.086,262.100 204.914,261.000 205.786 C 259.900 206.659,258.910 207.483,258.800 207.618 C 258.690 207.754,258.015 208.119,257.300 208.430 C 256.585 208.741,256.000 209.131,256.000 209.298 C 256.000 209.464,255.640 209.600,255.200 209.600 C 254.760 209.600,254.400 209.780,254.400 210.000 C 254.400 210.220,253.950 210.400,253.400 210.400 C 252.850 210.400,252.400 210.580,252.400 210.800 C 252.400 211.025,251.278 211.200,249.833 211.200 C 248.316 211.200,247.206 211.381,247.119 211.642 C 247.020 211.941,245.120 212.064,241.251 212.023 C 237.349 211.981,235.612 212.095,235.788 212.381 C 235.967 212.670,231.093 212.800,220.024 212.800 C 206.047 212.800,204.000 212.877,204.000 213.400 C 204.000 213.730,203.822 214.000,203.604 214.000 C 203.350 214.000,203.171 220.628,203.104 232.500 L 203.000 251.000 194.621 251.108 C 187.460 251.201,186.192 251.128,185.901 250.608 C 185.481 249.858,184.800 249.811,184.800 250.532 C 184.800 251.767,186.531 251.991,195.331 251.895 L 204.061 251.800 204.016 233.259 C 203.983 219.728,204.096 214.567,204.434 214.159 C 204.942 213.547,230.881 213.292,230.721 213.900 C 230.542 214.575,231.293 216.000,231.827 216.000 C 232.495 216.000,232.590 215.365,231.979 214.987 C 230.748 214.226,232.148 213.859,236.390 213.831 C 239.647 213.809,240.981 213.658,241.100 213.300 C 241.487 212.138,251.200 212.864,251.200 214.056 C 251.200 214.465,251.380 214.800,251.600 214.800 C 251.820 214.800,252.000 215.160,252.000 215.600 C 252.000 216.040,252.180 216.400,252.400 216.400 C 252.620 216.400,252.800 216.670,252.800 217.000 C 252.800 217.330,252.980 217.600,253.200 217.600 C 253.420 217.600,253.600 217.870,253.600 218.200 C 253.600 218.530,253.780 218.800,254.000 218.800 C 254.220 218.800,254.400 219.160,254.400 219.600 C 254.400 220.040,254.580 220.400,254.800 220.400 C 255.020 220.400,255.200 220.636,255.200 220.925 C 255.200 221.213,255.560 221.836,256.000 222.308 C 256.440 222.780,256.800 223.444,256.800 223.783 C 256.800 224.122,256.980 224.400,257.200 224.400 C 257.420 224.400,257.600 224.760,257.600 225.200 C 257.600 225.640,257.780 226.000,258.000 226.000 C 258.220 226.000,258.400 226.270,258.400 226.600 C 258.400 226.930,258.580 227.200,258.800 227.200 C 259.020 227.200,259.200 227.470,259.200 227.800 C 259.200 228.130,259.380 228.400,259.600 228.400 C 259.820 228.400,260.000 228.760,260.000 229.200 C 260.000 229.640,260.180 230.000,260.400 230.000 C 260.620 230.000,260.800 230.360,260.800 230.800 C 260.800 231.240,260.980 231.600,261.200 231.600 C 261.420 231.600,261.600 231.870,261.600 232.200 C 261.600 232.530,261.780 232.800,262.000 232.800 C 262.220 232.800,262.400 233.070,262.400 233.400 C 262.400 233.730,262.580 234.000,262.800 234.000 C 263.020 234.000,263.200 234.360,263.200 234.800 C 263.200 235.240,263.380 235.600,263.600 235.600 C 263.820 235.600,264.000 235.870,264.000 236.200 C 264.000 236.530,264.180 236.800,264.400 236.800 C 264.620 236.800,264.800 237.070,264.800 237.400 C 264.800 237.730,264.980 238.000,265.200 238.000 C 265.420 238.000,265.600 238.360,265.600 238.800 C 265.600 239.240,265.780 239.600,266.000 239.600 C 266.220 239.600,266.400 239.960,266.400 240.400 C 266.400 240.840,266.580 241.200,266.800 241.200 C 267.020 241.200,267.200 241.470,267.200 241.800 C 267.200 242.130,267.380 242.400,267.600 242.400 C 267.820 242.400,268.000 242.670,268.000 243.000 C 268.000 243.330,268.180 243.600,268.400 243.600 C 268.620 243.600,268.800 243.960,268.800 244.400 C 268.800 244.840,268.980 245.200,269.200 245.200 C 269.420 245.200,269.600 245.470,269.600 245.800 C 269.600 246.130,269.780 246.400,270.000 246.400 C 270.220 246.400,270.400 246.670,270.400 247.000 C 270.400 247.330,270.580 247.600,270.800 247.600 C 271.020 247.600,271.200 247.960,271.200 248.400 C 271.200 248.840,271.380 249.200,271.600 249.200 C 271.820 249.200,272.000 249.650,272.000 250.200 L 272.000 251.200 262.771 251.200 C 255.751 251.200,253.430 251.077,253.071 250.685 C 252.566 250.132,251.951 249.115,250.630 246.651 C 250.174 245.799,249.440 244.713,249.000 244.238 C 248.560 243.763,248.180 243.200,248.157 242.987 C 248.052 242.053,247.477 240.800,247.153 240.800 C 246.959 240.800,246.800 240.530,246.800 240.200 C 246.800 239.870,246.530 239.600,246.200 239.600 C 245.870 239.600,245.600 239.870,245.600 240.200 C 245.600 240.530,245.780 240.800,246.000 240.800 C 246.220 240.800,246.400 241.078,246.400 241.417 C 246.400 241.756,246.760 242.420,247.200 242.892 C 247.640 243.364,248.000 243.987,248.000 244.275 C 248.000 244.564,248.180 244.800,248.400 244.800 C 248.620 244.800,248.800 245.160,248.800 245.600 C 248.800 246.040,248.936 246.400,249.102 246.400 C 249.269 246.400,249.644 246.940,249.936 247.600 C 250.228 248.260,250.716 248.800,251.021 248.800 C 251.345 248.800,251.481 249.045,251.349 249.390 C 251.224 249.714,251.365 250.209,251.661 250.490 C 253.124 251.875,254.129 251.991,263.800 251.895 L 273.400 251.800 273.525 250.719 C 273.611 249.970,273.396 249.479,272.825 249.123 C 272.371 248.839,272.000 248.381,272.000 248.104 C 272.000 247.827,271.820 247.600,271.600 247.600 C 271.380 247.600,271.200 247.330,271.200 247.000 C 271.200 246.670,271.020 246.400,270.800 246.400 C 270.580 246.400,270.400 246.040,270.400 245.600 C 270.400 245.160,270.220 244.800,270.000 244.800 C 269.780 244.800,269.600 244.440,269.600 244.000 C 269.600 243.560,269.450 243.200,269.268 243.200 C 269.085 243.200,268.680 242.705,268.368 242.100 C 268.056 241.495,267.709 240.910,267.595 240.800 C 267.482 240.690,266.958 239.745,266.432 238.700 C 265.905 237.655,265.323 236.800,265.137 236.800 C 264.952 236.800,264.800 236.440,264.800 236.000 C 264.800 235.560,264.620 235.200,264.400 235.200 C 264.180 235.200,264.000 234.840,264.000 234.400 C 264.000 233.960,263.820 233.600,263.600 233.600 C 263.380 233.600,263.200 233.330,263.200 233.000 C 263.200 232.670,263.020 232.400,262.800 232.400 C 262.580 232.400,262.400 232.130,262.400 231.800 C 262.400 231.470,262.220 231.200,262.000 231.200 C 261.780 231.200,261.600 230.840,261.600 230.400 C 261.600 229.960,261.420 229.600,261.200 229.600 C 260.980 229.600,260.800 229.364,260.800 229.075 C 260.800 228.787,260.440 228.164,260.000 227.692 C 259.560 227.220,259.200 226.556,259.200 226.217 C 259.200 225.878,259.020 225.600,258.800 225.600 C 258.580 225.600,258.400 225.240,258.400 224.800 C 258.400 224.360,258.220 224.000,258.000 224.000 C 257.780 224.000,257.600 223.764,257.600 223.475 C 257.600 223.187,257.240 222.564,256.800 222.092 C 256.360 221.620,256.000 220.971,256.000 220.650 C 256.000 220.329,255.865 220.007,255.700 219.933 C 255.324 219.766,254.025 217.636,253.729 216.700 C 253.607 216.315,253.348 216.000,253.153 216.000 C 252.959 216.000,252.800 215.640,252.800 215.200 C 252.800 214.760,252.665 214.399,252.500 214.397 C 252.335 214.395,251.976 213.910,251.701 213.320 C 251.134 212.099,251.417 211.748,253.300 211.339 C 253.905 211.208,254.400 210.943,254.400 210.750 C 254.400 210.558,254.760 210.400,255.200 210.400 C 255.640 210.400,256.000 210.220,256.000 210.000 C 256.000 209.780,256.360 209.600,256.800 209.600 C 257.240 209.600,257.600 209.420,257.600 209.200 C 257.600 208.980,257.878 208.800,258.218 208.800 C 258.558 208.800,259.286 208.350,259.836 207.800 C 260.386 207.250,261.009 206.800,261.220 206.800 C 261.732 206.800,265.600 202.832,265.600 202.306 C 265.600 202.079,265.916 201.603,266.303 201.247 C 266.689 200.891,267.274 200.060,267.602 199.400 C 267.930 198.740,268.289 198.110,268.399 198.000 C 268.939 197.462,269.600 195.923,269.600 195.205 C 269.600 194.762,269.760 194.400,269.955 194.400 C 270.308 194.400,270.649 193.141,271.065 190.300 C 271.205 189.339,271.125 188.800,270.842 188.800 C 270.593 188.800,270.400 189.499,270.400 190.400 M305.382 206.400 C 305.382 214.870,305.435 218.335,305.499 214.100 C 305.564 209.865,305.564 202.935,305.499 198.700 C 305.435 194.465,305.382 197.930,305.382 206.400 M195.000 195.600 C 194.864 195.820,194.313 196.000,193.776 196.000 C 193.239 196.000,192.800 196.180,192.800 196.400 C 192.800 196.620,193.250 196.800,193.800 196.800 C 194.350 196.800,194.800 196.610,194.800 196.377 C 194.800 196.121,195.624 195.997,196.900 196.062 C 202.870 196.365,242.024 195.963,241.800 195.600 C 241.640 195.341,233.404 195.200,218.400 195.200 C 203.396 195.200,195.160 195.341,195.000 195.600 M184.660 196.188 C 184.536 196.512,184.696 197.039,185.017 197.360 C 185.338 197.681,185.600 198.316,185.600 198.771 C 185.600 199.227,185.788 199.600,186.018 199.600 C 186.247 199.600,186.392 199.825,186.339 200.100 C 186.195 200.850,186.800 202.400,187.237 202.400 C 187.447 202.400,187.777 201.995,187.970 201.500 C 188.398 200.398,190.186 198.708,191.800 197.878 C 192.889 197.319,192.928 197.234,192.224 196.959 C 191.741 196.770,191.389 196.834,191.291 197.128 C 191.204 197.388,190.858 197.600,190.521 197.600 C 190.184 197.600,189.307 198.256,188.572 199.058 L 187.236 200.517 186.775 199.358 C 186.521 198.721,186.153 197.887,185.957 197.505 C 185.761 197.123,185.600 196.538,185.600 196.205 C 185.600 195.430,184.955 195.419,184.660 196.188 M109.600 212.800 C 109.600 213.460,109.780 214.000,110.000 214.000 C 110.220 214.000,110.400 213.460,110.400 212.800 C 110.400 212.140,110.220 211.600,110.000 211.600 C 109.780 211.600,109.600 212.140,109.600 212.800 M108.800 214.382 C 108.800 215.182,108.660 215.565,107.662 217.495 C 107.408 217.987,107.200 218.752,107.200 219.195 C 107.200 219.638,107.020 220.000,106.800 220.000 C 106.580 220.000,106.400 220.349,106.400 220.776 C 106.400 221.203,106.220 221.664,106.000 221.800 C 105.780 221.936,105.600 222.391,105.600 222.811 C 105.600 223.232,105.240 224.217,104.800 225.000 C 104.360 225.783,104.000 226.779,104.000 227.212 C 104.000 227.645,103.820 228.000,103.600 228.000 C 103.380 228.000,103.200 228.450,103.200 229.000 C 103.200 229.550,103.020 230.000,102.800 230.000 C 102.580 230.000,102.400 230.362,102.400 230.805 C 102.400 231.248,102.220 231.968,102.000 232.405 C 101.780 232.842,101.420 233.558,101.200 233.995 C 100.980 234.432,100.800 235.062,100.800 235.395 C 100.800 235.728,100.620 236.000,100.400 236.000 C 100.180 236.000,100.000 236.450,100.000 237.000 C 100.000 237.550,100.180 238.000,100.400 238.000 C 100.620 238.000,100.800 237.640,100.800 237.200 C 100.800 236.760,100.980 236.400,101.200 236.400 C 101.420 236.400,101.600 235.860,101.600 235.200 C 101.600 234.540,101.780 234.000,102.000 234.000 C 102.220 234.000,102.400 233.651,102.400 233.224 C 102.400 232.797,102.580 232.336,102.800 232.200 C 103.020 232.064,103.200 231.513,103.200 230.976 C 103.200 230.439,103.380 230.000,103.600 230.000 C 103.820 230.000,104.000 229.550,104.000 229.000 C 104.000 228.450,104.180 228.000,104.400 228.000 C 104.620 228.000,104.800 227.550,104.800 227.000 C 104.800 226.450,104.980 226.000,105.200 226.000 C 105.420 226.000,105.600 225.550,105.600 225.000 C 105.600 224.450,105.780 224.000,106.000 224.000 C 106.220 224.000,106.400 223.550,106.400 223.000 C 106.400 222.450,106.580 222.000,106.800 222.000 C 107.020 222.000,107.200 221.550,107.200 221.000 C 107.200 220.450,107.380 220.000,107.600 220.000 C 107.820 220.000,108.000 219.550,108.000 219.000 C 108.000 218.450,108.180 218.000,108.400 218.000 C 108.620 218.000,108.800 217.550,108.800 217.000 C 108.800 216.450,108.980 216.000,109.200 216.000 C 109.420 216.000,109.600 215.561,109.600 215.024 C 109.600 214.487,109.420 213.936,109.200 213.800 C 108.980 213.664,108.800 213.926,108.800 214.382 M172.000 216.600 C 172.000 217.150,172.180 217.600,172.400 217.600 C 172.620 217.600,172.800 218.039,172.800 218.576 C 172.800 219.113,172.980 219.664,173.200 219.800 C 173.420 219.936,173.600 220.476,173.600 221.000 C 173.600 221.524,173.780 222.064,174.000 222.200 C 174.220 222.336,174.400 222.797,174.400 223.224 C 174.400 223.651,174.580 224.000,174.800 224.000 C 175.020 224.000,175.200 223.550,175.200 223.000 C 175.200 222.450,175.020 222.000,174.800 222.000 C 174.580 222.000,174.400 221.460,174.400 220.800 C 174.400 220.140,174.220 219.600,174.000 219.600 C 173.780 219.600,173.600 219.150,173.600 218.600 C 173.600 218.050,173.420 217.600,173.200 217.600 C 172.980 217.600,172.800 217.150,172.800 216.600 C 172.800 216.050,172.620 215.600,172.400 215.600 C 172.180 215.600,172.000 216.050,172.000 216.600 M232.000 217.000 C 232.000 217.330,232.180 217.600,232.400 217.600 C 232.620 217.600,232.800 217.878,232.800 218.217 C 232.800 218.556,233.139 219.197,233.553 219.641 C 233.967 220.086,234.894 221.608,235.612 223.025 C 236.331 224.441,237.146 225.600,237.422 225.600 C 237.728 225.600,237.843 225.913,237.716 226.400 C 237.599 226.847,237.704 227.200,237.953 227.200 C 238.199 227.200,238.400 227.478,238.400 227.817 C 238.400 228.156,238.760 228.820,239.200 229.292 C 239.640 229.764,240.000 230.387,240.000 230.675 C 240.000 230.964,240.180 231.200,240.400 231.200 C 240.620 231.200,240.800 231.560,240.800 232.000 C 240.800 232.440,240.958 232.800,241.151 232.800 C 241.345 232.800,241.727 233.340,242.000 234.000 C 242.273 234.660,242.655 235.200,242.849 235.200 C 243.042 235.200,243.200 235.560,243.200 236.000 C 243.200 236.440,243.336 236.800,243.502 236.800 C 243.669 236.800,244.044 237.340,244.336 238.000 C 244.628 238.660,245.137 239.200,245.467 239.200 C 245.804 239.200,245.965 238.981,245.834 238.700 C 245.705 238.425,245.489 237.885,245.354 237.500 C 245.218 237.115,244.948 236.800,244.753 236.800 C 244.559 236.800,244.400 236.556,244.400 236.258 C 244.400 235.961,243.995 235.280,243.500 234.746 C 243.005 234.212,242.580 233.600,242.557 233.387 C 242.452 232.453,241.877 231.200,241.553 231.200 C 241.359 231.200,241.200 230.930,241.200 230.600 C 241.200 230.270,240.919 230.000,240.576 230.000 C 240.233 230.000,240.060 229.827,240.190 229.616 C 240.405 229.268,239.738 227.691,239.168 227.200 C 239.040 227.090,238.681 226.415,238.370 225.700 C 238.059 224.985,237.568 224.400,237.279 224.400 C 236.989 224.400,236.848 224.245,236.965 224.056 C 237.218 223.648,236.332 221.608,235.900 221.603 C 235.735 221.601,235.600 221.330,235.600 221.000 C 235.600 220.670,235.319 220.400,234.976 220.400 C 234.633 220.400,234.448 220.245,234.565 220.056 C 234.818 219.648,233.932 217.608,233.500 217.603 C 233.335 217.601,233.200 217.330,233.200 217.000 C 233.200 216.670,232.930 216.400,232.600 216.400 C 232.270 216.400,232.000 216.670,232.000 217.000 M175.200 225.400 C 175.200 225.950,175.380 226.400,175.600 226.400 C 175.820 226.400,176.000 226.762,176.000 227.205 C 176.000 227.648,176.180 228.368,176.400 228.805 C 176.620 229.242,176.980 229.958,177.200 230.395 C 177.420 230.832,177.600 231.552,177.600 231.995 C 177.600 232.438,177.780 232.800,178.000 232.800 C 178.220 232.800,178.400 233.340,178.400 234.000 C 178.400 234.660,178.580 235.200,178.800 235.200 C 179.020 235.200,179.200 235.560,179.200 236.000 C 179.200 236.440,179.380 236.800,179.600 236.800 C 179.820 236.800,180.000 236.451,180.000 236.024 C 180.000 235.597,179.820 235.136,179.600 235.000 C 179.380 234.864,179.200 234.313,179.200 233.776 C 179.200 233.239,179.020 232.800,178.800 232.800 C 178.580 232.800,178.400 232.350,178.400 231.800 C 178.400 231.250,178.220 230.800,178.000 230.800 C 177.780 230.800,177.600 230.361,177.600 229.824 C 177.600 229.287,177.420 228.736,177.200 228.600 C 176.980 228.464,176.800 227.913,176.800 227.376 C 176.800 226.839,176.620 226.400,176.400 226.400 C 176.180 226.400,176.000 225.950,176.000 225.400 C 176.000 224.850,175.820 224.400,175.600 224.400 C 175.380 224.400,175.200 224.850,175.200 225.400 M180.000 238.167 C 180.000 238.735,180.180 239.200,180.400 239.200 C 180.620 239.200,180.800 239.639,180.800 240.176 C 180.800 240.713,180.980 241.264,181.200 241.400 C 181.420 241.536,181.600 241.997,181.600 242.424 C 181.600 242.851,181.780 243.200,182.000 243.200 C 182.220 243.200,182.400 242.739,182.400 242.176 C 182.400 241.596,182.227 241.260,182.000 241.400 C 181.767 241.544,181.600 241.137,181.600 240.424 C 181.600 239.751,181.409 239.200,181.175 239.200 C 180.941 239.200,180.806 238.812,180.875 238.337 C 180.944 237.863,180.775 237.398,180.500 237.304 C 180.185 237.196,180.000 237.516,180.000 238.167 M99.200 239.200 C 99.200 239.640,99.020 240.000,98.800 240.000 C 98.580 240.000,98.400 240.339,98.400 240.754 C 98.400 241.169,98.139 242.011,97.820 242.626 C 97.241 243.743,97.316 244.400,98.024 244.400 C 98.231 244.400,98.400 243.950,98.400 243.400 C 98.400 242.850,98.580 242.400,98.800 242.400 C 99.020 242.400,99.200 241.950,99.200 241.400 C 99.200 240.850,99.380 240.400,99.600 240.400 C 99.820 240.400,100.000 239.950,100.000 239.400 C 100.000 238.850,99.820 238.400,99.600 238.400 C 99.380 238.400,99.200 238.760,99.200 239.200 M117.200 244.600 C 117.200 245.150,117.020 245.600,116.800 245.600 C 116.580 245.600,116.400 245.960,116.400 246.400 C 116.400 246.880,116.667 247.200,117.067 247.200 C 117.433 247.200,117.629 247.095,117.501 246.967 C 117.373 246.839,117.523 246.125,117.834 245.380 C 118.539 243.692,118.538 243.600,117.800 243.600 C 117.427 243.600,117.200 243.978,117.200 244.600 M182.400 244.567 C 182.400 245.135,182.580 245.600,182.800 245.600 C 183.020 245.600,183.200 246.039,183.200 246.576 C 183.200 247.113,183.380 247.664,183.600 247.800 C 183.820 247.936,184.000 248.397,184.000 248.824 C 184.000 249.251,184.180 249.600,184.400 249.600 C 184.620 249.600,184.800 249.150,184.800 248.600 C 184.800 248.050,184.620 247.600,184.400 247.600 C 184.180 247.600,184.000 247.150,184.000 246.600 C 184.000 246.050,183.809 245.600,183.575 245.600 C 183.341 245.600,183.206 245.212,183.275 244.737 C 183.344 244.263,183.175 243.798,182.900 243.704 C 182.585 243.596,182.400 243.916,182.400 244.567 M96.429 245.900 C 96.137 246.725,95.562 248.106,95.152 248.969 C 94.332 250.694,94.362 250.943,95.343 250.567 C 95.704 250.428,96.000 249.884,96.000 249.357 C 96.000 248.831,96.180 248.400,96.400 248.400 C 96.620 248.400,96.800 247.950,96.800 247.400 C 96.800 246.850,96.980 246.400,97.200 246.400 C 97.420 246.400,97.600 245.950,97.600 245.400 C 97.600 243.939,97.039 244.178,96.429 245.900 M115.600 248.600 C 115.600 249.150,115.420 249.600,115.200 249.600 C 114.980 249.600,114.800 249.966,114.800 250.414 C 114.800 251.213,114.625 251.225,105.000 251.114 C 97.283 251.024,95.199 251.108,95.200 251.508 C 95.200 252.290,114.952 252.181,115.604 251.395 C 115.860 251.087,115.940 250.627,115.783 250.373 C 115.626 250.119,115.676 249.796,115.895 249.655 C 116.656 249.166,116.910 247.600,116.227 247.600 C 115.825 247.600,115.600 247.959,115.600 248.600 " stroke="none" fill="#68a5a1" fill-rule="evenodd"></path><path id="path1" d="M287.043 151.833 C 286.609 152.963,286.764 248.730,287.200 249.000 C 287.466 249.164,287.600 232.804,287.600 200.224 C 287.600 173.261,287.529 151.200,287.443 151.200 C 287.356 151.200,287.176 151.485,287.043 151.833 M204.921 169.498 C 207.077 169.571,210.497 169.570,212.521 169.498 C 214.544 169.425,212.780 169.366,208.600 169.367 C 204.420 169.367,202.764 169.426,204.921 169.498 M236.100 169.487 C 236.705 169.578,237.695 169.578,238.300 169.487 C 238.905 169.395,238.410 169.320,237.200 169.320 C 235.990 169.320,235.495 169.395,236.100 169.487 M139.722 199.499 C 142.099 199.570,145.879 199.569,148.122 199.498 C 150.365 199.427,148.420 199.369,143.800 199.369 C 139.180 199.370,137.345 199.428,139.722 199.499 M167.246 201.657 C 167.218 202.300,167.457 202.813,167.857 202.966 C 168.351 203.156,168.411 203.093,168.100 202.709 C 167.872 202.429,167.598 201.840,167.489 201.400 C 167.334 200.769,167.283 200.823,167.246 201.657 M255.424 209.013 C 254.425 209.768,254.795 209.763,256.254 209.002 C 256.884 208.674,257.130 208.410,256.800 208.415 C 256.470 208.421,255.851 208.690,255.424 209.013 M203.422 213.500 C 202.765 214.580,202.766 214.585,203.490 213.762 C 203.896 213.301,204.492 212.820,204.814 212.694 C 205.291 212.506,205.278 212.457,204.746 212.432 C 204.386 212.414,203.791 212.895,203.422 213.500 " stroke="none" fill="#4b9493" fill-rule="evenodd"></path><path id="path2" d="M147.855 150.200 C 147.690 150.632,147.013 150.800,145.436 150.800 C 144.232 150.800,143.136 150.980,143.000 151.200 C 142.864 151.420,142.324 151.600,141.800 151.600 C 141.276 151.600,140.736 151.780,140.600 152.000 C 140.464 152.220,140.003 152.400,139.576 152.400 C 139.149 152.400,138.800 152.550,138.800 152.732 C 138.800 152.915,138.306 153.320,137.703 153.632 C 135.091 154.984,130.800 160.690,130.800 162.812 C 130.800 163.245,130.620 163.600,130.400 163.600 C 130.180 163.600,130.000 163.949,130.000 164.376 C 130.000 164.803,129.820 165.264,129.600 165.400 C 129.380 165.536,129.200 166.087,129.200 166.624 C 129.200 167.161,129.020 167.600,128.800 167.600 C 128.580 167.600,128.400 167.949,128.400 168.376 C 128.400 168.803,128.220 169.264,128.000 169.400 C 127.780 169.536,127.600 170.087,127.600 170.624 C 127.600 171.161,127.420 171.600,127.200 171.600 C 126.980 171.600,126.800 172.039,126.800 172.576 C 126.800 173.113,126.620 173.664,126.400 173.800 C 126.180 173.936,126.000 174.397,126.000 174.824 C 126.000 175.251,125.820 175.600,125.600 175.600 C 125.380 175.600,125.200 176.140,125.200 176.800 C 125.200 177.460,125.020 178.000,124.800 178.000 C 124.580 178.000,124.400 178.349,124.400 178.776 C 124.400 179.203,124.220 179.664,124.000 179.800 C 123.780 179.936,123.600 180.487,123.600 181.024 C 123.600 181.561,123.420 182.000,123.200 182.000 C 122.980 182.000,122.800 182.439,122.800 182.976 C 122.800 183.513,122.620 184.064,122.400 184.200 C 122.180 184.336,122.000 184.797,122.000 185.224 C 122.000 185.651,121.820 186.000,121.600 186.000 C 121.380 186.000,121.200 186.439,121.200 186.976 C 121.200 187.513,121.020 188.064,120.800 188.200 C 120.580 188.336,120.400 188.797,120.400 189.224 C 120.400 189.651,120.220 190.000,120.000 190.000 C 119.780 190.000,119.600 190.362,119.600 190.805 C 119.600 191.248,119.441 191.923,119.247 192.305 C 118.847 193.092,118.037 195.006,117.600 196.200 C 117.439 196.640,117.103 197.495,116.854 198.100 C 116.604 198.705,116.244 199.605,116.054 200.100 C 115.863 200.595,115.503 201.495,115.254 202.100 C 115.004 202.705,114.620 203.650,114.400 204.200 C 114.180 204.750,113.820 205.650,113.600 206.200 C 113.380 206.750,113.020 207.650,112.800 208.200 C 112.580 208.750,112.220 209.650,112.000 210.200 C 111.021 212.647,110.684 213.445,110.353 214.095 C 110.159 214.477,110.000 215.152,110.000 215.595 C 110.000 216.038,109.820 216.400,109.600 216.400 C 109.380 216.400,109.200 216.749,109.200 217.176 C 109.200 217.603,109.020 218.064,108.800 218.200 C 108.580 218.336,108.400 218.887,108.400 219.424 C 108.400 219.961,108.220 220.400,108.000 220.400 C 107.780 220.400,107.600 220.762,107.600 221.205 C 107.600 221.648,107.441 222.323,107.247 222.705 C 106.873 223.440,106.124 225.199,105.546 226.700 C 105.356 227.195,104.996 228.095,104.746 228.700 C 104.497 229.305,104.137 230.205,103.946 230.700 C 103.756 231.195,103.420 232.050,103.200 232.600 C 102.980 233.150,102.644 234.005,102.454 234.500 C 102.263 234.995,101.879 235.940,101.600 236.600 C 101.321 237.260,100.913 238.250,100.693 238.800 C 100.473 239.350,100.113 240.250,99.893 240.800 C 99.673 241.350,99.316 242.250,99.100 242.800 C 98.884 243.350,98.548 244.113,98.353 244.495 C 98.159 244.877,98.000 245.552,98.000 245.995 C 98.000 246.438,97.820 246.800,97.600 246.800 C 97.380 246.800,97.200 247.149,97.200 247.576 C 97.200 248.003,97.020 248.464,96.800 248.600 C 96.580 248.736,96.400 249.377,96.400 250.024 L 96.400 251.200 105.400 251.200 C 114.042 251.200,114.400 251.169,114.400 250.424 C 114.400 249.997,114.580 249.536,114.800 249.400 C 115.020 249.264,115.200 248.837,115.200 248.452 C 115.200 248.066,115.560 247.005,116.000 246.094 C 116.440 245.184,116.800 244.248,116.800 244.014 C 116.800 243.780,116.959 243.277,117.153 242.895 C 117.546 242.123,118.531 239.737,119.546 237.100 C 119.737 236.605,120.097 235.705,120.346 235.100 C 120.596 234.495,121.001 233.505,121.247 232.900 C 121.492 232.295,121.852 231.487,122.047 231.105 C 122.241 230.723,122.400 230.220,122.400 229.986 C 122.400 229.752,122.760 228.816,123.200 227.906 C 123.640 226.995,124.000 225.946,124.000 225.574 C 124.000 225.202,124.264 224.679,124.587 224.411 C 124.910 224.143,125.156 223.806,125.134 223.662 C 125.024 222.954,125.761 220.765,126.244 220.364 C 126.545 220.114,126.698 219.759,126.584 219.574 C 126.470 219.390,126.717 218.466,127.132 217.520 C 127.547 216.574,128.124 215.260,128.415 214.600 C 128.705 213.940,128.956 213.220,128.971 213.000 C 128.989 212.748,133.296 212.526,140.600 212.400 L 152.200 212.200 152.200 206.000 L 152.200 199.800 143.500 199.692 C 135.223 199.590,134.800 199.547,134.800 198.816 C 134.800 198.393,134.972 197.941,135.183 197.811 C 135.393 197.681,135.471 197.328,135.355 197.028 C 135.240 196.727,135.338 196.362,135.573 196.217 C 135.808 196.072,136.000 195.625,136.000 195.225 C 136.000 194.825,136.259 194.283,136.576 194.020 C 136.893 193.757,137.061 193.303,136.949 193.011 C 136.837 192.720,136.938 192.362,137.173 192.217 C 137.408 192.072,137.600 191.625,137.600 191.225 C 137.600 190.825,137.868 190.276,138.196 190.004 C 138.523 189.732,138.704 189.369,138.598 189.197 C 138.390 188.860,139.320 186.409,139.860 185.872 C 140.041 185.691,140.195 185.331,140.200 185.072 C 140.222 184.113,141.275 181.600,141.655 181.600 C 141.871 181.600,141.938 181.424,141.805 181.208 C 141.672 180.993,141.788 180.408,142.062 179.908 C 142.337 179.409,142.605 178.733,142.659 178.407 C 142.713 178.081,142.947 177.751,143.181 177.673 C 143.414 177.595,143.506 177.371,143.384 177.174 C 143.262 176.977,143.388 176.408,143.663 175.908 C 143.938 175.409,144.177 174.820,144.194 174.600 C 144.211 174.380,144.562 173.480,144.974 172.600 C 145.386 171.720,145.703 170.886,145.677 170.746 C 145.651 170.606,146.246 169.858,146.998 169.084 C 149.331 166.681,154.811 167.028,155.489 169.620 C 155.602 170.049,155.852 170.400,156.047 170.400 C 156.241 170.400,156.400 170.850,156.400 171.400 C 156.400 171.950,156.580 172.400,156.800 172.400 C 157.020 172.400,157.200 172.762,157.200 173.205 C 157.200 173.648,157.380 174.368,157.600 174.805 C 157.820 175.242,158.180 175.958,158.400 176.395 C 158.620 176.832,158.800 177.552,158.800 177.995 C 158.800 178.438,158.980 178.800,159.200 178.800 C 159.420 178.800,159.600 179.162,159.600 179.605 C 159.600 180.048,159.780 180.768,160.000 181.205 C 160.220 181.642,160.580 182.358,160.800 182.795 C 161.020 183.232,161.200 183.952,161.200 184.395 C 161.200 184.838,161.380 185.200,161.600 185.200 C 161.820 185.200,162.000 185.562,162.000 186.005 C 162.000 186.448,162.180 187.168,162.400 187.605 C 162.620 188.042,162.980 188.758,163.200 189.195 C 163.420 189.632,163.600 190.352,163.600 190.795 C 163.600 191.238,163.780 191.600,164.000 191.600 C 164.220 191.600,164.400 191.962,164.400 192.405 C 164.400 192.848,164.580 193.568,164.800 194.005 C 165.020 194.442,165.380 195.158,165.600 195.595 C 165.820 196.032,166.000 196.752,166.000 197.195 C 166.000 197.638,166.180 198.000,166.400 198.000 C 166.620 198.000,166.800 198.362,166.800 198.805 C 166.800 199.583,166.942 199.969,167.938 201.895 C 168.192 202.387,168.400 203.152,168.400 203.595 C 168.400 204.038,168.580 204.400,168.800 204.400 C 169.020 204.400,169.200 204.762,169.200 205.205 C 169.200 205.648,169.380 206.368,169.600 206.805 C 169.820 207.242,170.180 207.958,170.400 208.395 C 170.620 208.832,170.800 209.552,170.800 209.995 C 170.800 210.438,170.980 210.800,171.200 210.800 C 171.420 210.800,171.600 211.239,171.600 211.776 C 171.600 212.313,171.780 212.864,172.000 213.000 C 172.220 213.136,172.400 213.597,172.400 214.024 C 172.400 214.451,172.580 214.800,172.800 214.800 C 173.020 214.800,173.200 215.340,173.200 216.000 C 173.200 216.660,173.380 217.200,173.600 217.200 C 173.820 217.200,174.000 217.562,174.000 218.005 C 174.000 218.448,174.180 219.168,174.400 219.605 C 174.620 220.042,174.980 220.758,175.200 221.195 C 175.420 221.632,175.600 222.352,175.600 222.795 C 175.600 223.238,175.780 223.600,176.000 223.600 C 176.220 223.600,176.400 224.140,176.400 224.800 C 176.400 225.460,176.580 226.000,176.800 226.000 C 177.020 226.000,177.200 226.450,177.200 227.000 C 177.200 227.550,177.380 228.000,177.600 228.000 C 177.820 228.000,178.000 228.439,178.000 228.976 C 178.000 229.513,178.180 230.064,178.400 230.200 C 178.620 230.336,178.800 230.887,178.800 231.424 C 178.800 231.961,178.980 232.400,179.200 232.400 C 179.420 232.400,179.600 232.850,179.600 233.400 C 179.600 233.950,179.780 234.400,180.000 234.400 C 180.220 234.400,180.400 234.850,180.400 235.400 C 180.400 235.950,180.580 236.400,180.800 236.400 C 181.020 236.400,181.200 236.940,181.200 237.600 C 181.200 238.260,181.380 238.800,181.600 238.800 C 181.820 238.800,182.000 239.149,182.000 239.576 C 182.000 240.003,182.180 240.464,182.400 240.600 C 182.620 240.736,182.800 241.287,182.800 241.824 C 182.800 242.361,182.980 242.800,183.200 242.800 C 183.420 242.800,183.600 243.340,183.600 244.000 C 183.600 244.660,183.780 245.200,184.000 245.200 C 184.220 245.200,184.400 245.549,184.400 245.976 C 184.400 246.403,184.580 246.864,184.800 247.000 C 185.020 247.136,185.200 247.687,185.200 248.224 C 185.200 248.761,185.380 249.200,185.600 249.200 C 185.820 249.200,186.000 249.650,186.000 250.200 L 186.000 251.200 194.400 251.200 L 202.800 251.200 202.813 232.500 C 202.823 217.296,202.928 213.665,203.374 213.077 C 203.888 212.399,204.826 212.362,218.510 212.477 C 230.282 212.576,233.195 212.497,233.597 212.066 C 233.974 211.662,235.344 211.560,239.245 211.649 C 242.872 211.731,244.537 211.623,244.877 211.283 C 245.172 210.988,246.576 210.800,248.480 210.800 C 250.293 210.800,251.600 210.632,251.600 210.400 C 251.600 210.180,252.140 210.000,252.800 210.000 C 253.460 210.000,254.000 209.820,254.000 209.600 C 254.000 209.380,254.360 209.200,254.800 209.200 C 255.240 209.200,255.600 209.020,255.600 208.800 C 255.600 208.580,255.960 208.400,256.400 208.400 C 256.840 208.400,257.200 208.250,257.200 208.068 C 257.200 207.885,257.695 207.486,258.300 207.181 C 259.728 206.462,266.000 200.140,266.000 199.420 C 266.000 199.116,266.135 198.807,266.300 198.733 C 266.465 198.660,267.025 197.700,267.544 196.600 C 268.063 195.500,268.648 194.287,268.844 193.905 C 269.040 193.523,269.200 192.859,269.200 192.429 C 269.200 191.999,269.380 191.536,269.600 191.400 C 269.820 191.264,270.000 190.452,270.000 189.596 C 270.000 188.740,270.225 187.896,270.500 187.720 C 270.864 187.487,271.000 185.763,271.000 181.400 C 271.000 177.037,270.864 175.313,270.500 175.080 C 270.225 174.904,270.000 174.060,270.000 173.204 C 270.000 172.348,269.820 171.536,269.600 171.400 C 269.380 171.264,269.200 170.713,269.200 170.176 C 269.200 169.639,269.020 169.200,268.800 169.200 C 268.580 169.200,268.400 168.947,268.400 168.638 C 268.400 168.099,266.835 164.814,266.381 164.400 C 266.260 164.290,265.723 163.570,265.187 162.800 C 263.406 160.240,258.871 156.400,257.628 156.400 C 257.393 156.400,257.200 156.220,257.200 156.000 C 257.200 155.780,256.840 155.600,256.400 155.600 C 255.960 155.600,255.600 155.420,255.600 155.200 C 255.600 154.980,255.251 154.800,254.824 154.800 C 254.397 154.800,253.936 154.620,253.800 154.400 C 253.664 154.180,253.113 154.000,252.576 154.000 C 252.039 154.000,251.600 153.820,251.600 153.600 C 251.600 153.380,250.916 153.200,250.080 153.200 C 249.244 153.200,248.335 152.975,248.060 152.700 C 247.669 152.309,240.891 152.200,216.880 152.200 L 186.200 152.200 186.200 160.200 L 186.200 168.200 213.583 168.303 C 231.035 168.368,241.110 168.550,241.363 168.803 C 241.581 169.021,242.536 169.200,243.485 169.200 C 244.434 169.200,245.523 169.360,245.905 169.556 C 246.287 169.751,247.291 170.246,248.136 170.656 C 248.981 171.065,250.268 172.056,250.998 172.859 C 252.219 174.203,252.689 175.041,253.944 178.119 C 254.624 179.788,254.539 185.387,253.824 185.980 C 253.507 186.243,253.351 186.727,253.477 187.056 C 254.391 189.439,247.806 195.600,244.345 195.600 C 243.741 195.600,243.136 195.780,243.000 196.000 C 242.840 196.259,234.463 196.400,219.176 196.400 C 203.725 196.400,195.600 196.538,195.600 196.800 C 195.600 197.020,195.060 197.200,194.400 197.200 C 193.740 197.200,193.200 197.380,193.200 197.600 C 193.200 197.820,192.929 198.000,192.599 198.000 C 191.934 198.000,188.365 201.338,187.680 202.600 L 187.246 203.400 186.636 202.600 C 186.300 202.160,186.020 201.496,186.013 201.124 C 186.006 200.752,185.820 200.336,185.600 200.200 C 185.380 200.064,185.200 199.513,185.200 198.976 C 185.200 198.439,185.020 198.000,184.800 198.000 C 184.580 198.000,184.400 197.638,184.400 197.195 C 184.400 196.752,184.220 196.032,184.000 195.595 C 183.780 195.158,183.420 194.442,183.200 194.005 C 182.980 193.568,182.800 192.848,182.800 192.405 C 182.800 191.962,182.620 191.600,182.400 191.600 C 182.180 191.600,182.000 191.150,182.000 190.600 C 182.000 190.050,181.820 189.600,181.600 189.600 C 181.380 189.600,181.200 189.150,181.200 188.600 C 181.200 188.050,181.020 187.600,180.800 187.600 C 180.580 187.600,180.400 187.238,180.400 186.795 C 180.400 186.352,180.220 185.632,180.000 185.195 C 179.780 184.758,179.420 184.042,179.200 183.605 C 178.980 183.168,178.800 182.448,178.800 182.005 C 178.800 181.562,178.620 181.200,178.400 181.200 C 178.180 181.200,178.000 180.838,178.000 180.395 C 178.000 179.952,177.820 179.232,177.600 178.795 C 177.380 178.358,177.020 177.642,176.800 177.205 C 176.580 176.768,176.400 176.048,176.400 175.605 C 176.400 175.162,176.220 174.800,176.000 174.800 C 175.780 174.800,175.600 174.361,175.600 173.824 C 175.600 173.287,175.420 172.736,175.200 172.600 C 174.980 172.464,174.800 171.913,174.800 171.376 C 174.800 170.839,174.620 170.400,174.400 170.400 C 174.180 170.400,174.000 169.950,174.000 169.400 C 174.000 168.850,173.820 168.400,173.600 168.400 C 173.380 168.400,173.200 168.038,173.200 167.595 C 173.200 167.152,173.020 166.432,172.800 165.995 C 172.580 165.558,172.220 164.842,172.000 164.405 C 171.780 163.968,171.600 163.263,171.600 162.839 C 171.600 162.414,171.465 162.007,171.300 161.933 C 171.135 161.860,170.566 160.943,170.035 159.896 C 168.320 156.512,164.037 152.400,162.228 152.400 C 161.883 152.400,161.600 152.220,161.600 152.000 C 161.600 151.780,161.060 151.600,160.400 151.600 C 159.740 151.600,159.200 151.420,159.200 151.200 C 159.200 150.980,158.204 150.800,156.987 150.800 C 155.390 150.800,154.711 150.633,154.545 150.200 C 154.367 149.738,153.599 149.600,151.200 149.600 C 148.801 149.600,148.033 149.738,147.855 150.200 M288.000 200.000 L 288.000 249.600 295.776 249.600 C 304.650 249.600,304.181 249.799,304.241 246.000 C 304.316 241.289,304.547 240.543,304.800 244.200 C 304.939 246.216,305.061 242.079,305.077 234.800 C 305.093 227.650,304.980 222.340,304.828 223.000 C 304.675 223.660,304.590 227.890,304.639 232.400 C 304.719 239.791,304.696 240.126,304.402 235.800 C 304.223 233.160,304.063 213.360,304.046 191.800 C 304.029 170.240,304.012 152.105,304.008 151.500 L 304.000 150.400 296.000 150.400 L 288.000 150.400 288.000 200.000 M304.643 153.500 C 304.359 156.885,304.683 190.416,305.003 190.736 C 305.111 190.845,305.200 181.813,305.200 170.667 C 305.200 159.520,305.133 150.400,305.052 150.400 C 304.970 150.400,304.786 151.795,304.643 153.500 M304.963 197.600 C 304.963 201.230,305.023 202.715,305.098 200.900 C 305.172 199.085,305.172 196.115,305.098 194.300 C 305.023 192.485,304.963 193.970,304.963 197.600 M244.294 213.477 C 243.825 213.946,242.514 214.070,238.050 214.069 C 234.943 214.067,232.400 214.211,232.400 214.387 C 232.400 214.786,233.109 216.110,234.439 218.200 C 235.000 219.080,235.582 220.070,235.733 220.400 C 235.883 220.730,236.388 221.630,236.854 222.400 C 237.320 223.170,237.999 224.340,238.363 225.000 C 238.728 225.660,239.484 226.920,240.042 227.800 C 240.601 228.680,241.179 229.670,241.327 230.000 C 241.474 230.330,241.821 230.953,242.097 231.385 C 242.952 232.719,244.557 235.360,245.025 236.200 C 245.270 236.640,245.820 237.630,246.248 238.400 C 246.676 239.170,247.484 240.520,248.042 241.400 C 248.601 242.280,249.179 243.270,249.327 243.600 C 249.474 243.930,249.821 244.557,250.097 244.993 C 252.129 248.201,252.691 249.132,253.180 250.100 L 253.735 251.200 262.668 251.200 C 272.473 251.200,272.500 251.192,270.847 248.862 C 270.433 248.278,269.730 247.150,269.284 246.355 C 267.581 243.313,267.394 242.994,267.199 242.800 C 267.089 242.690,266.735 242.060,266.414 241.400 C 266.092 240.740,265.528 239.750,265.161 239.200 C 264.794 238.650,264.130 237.550,263.684 236.755 C 261.981 233.713,261.794 233.394,261.599 233.200 C 261.489 233.090,261.135 232.460,260.812 231.800 C 260.489 231.140,259.763 229.880,259.200 229.000 C 258.637 228.120,257.918 226.860,257.602 226.200 C 257.287 225.540,256.728 224.550,256.361 224.000 C 255.994 223.450,255.330 222.350,254.884 221.555 C 253.176 218.504,252.994 218.194,252.795 218.000 C 252.682 217.890,252.157 216.942,251.629 215.894 C 250.388 213.433,250.254 213.345,247.344 213.095 C 245.489 212.936,244.742 213.029,244.294 213.477 M304.934 218.800 C 304.934 220.450,305.005 221.125,305.091 220.300 C 305.178 219.475,305.178 218.125,305.091 217.300 C 305.005 216.475,304.934 217.150,304.934 218.800 " stroke="none" fill="#247c7c" fill-rule="evenodd"></path><path id="path3" d="M147.200 149.971 C 147.200 150.175,146.885 150.433,146.500 150.545 C 146.079 150.667,146.186 150.718,146.769 150.674 C 147.704 150.603,148.512 149.600,147.633 149.600 C 147.395 149.600,147.200 149.767,147.200 149.971 M154.498 150.100 C 154.589 150.375,155.099 150.633,155.631 150.674 C 156.214 150.718,156.321 150.667,155.900 150.545 C 155.515 150.433,155.200 150.175,155.200 149.971 C 155.200 149.767,155.005 149.600,154.767 149.600 C 154.528 149.600,154.407 149.825,154.498 150.100 M158.943 151.000 C 159.273 151.330,159.640 151.600,159.759 151.600 C 159.878 151.600,159.871 151.330,159.745 151.000 C 159.618 150.670,159.251 150.400,158.929 150.400 C 158.421 150.400,158.422 150.480,158.943 151.000 M287.698 199.667 C 287.644 226.874,287.709 249.419,287.843 249.767 C 288.053 250.314,289.141 250.400,295.871 250.400 C 305.658 250.400,305.019 250.843,304.817 244.200 C 304.732 241.377,304.645 240.924,304.417 242.102 C 304.256 242.929,304.172 244.728,304.230 246.100 C 304.383 249.716,304.664 249.600,295.753 249.600 L 288.003 249.600 287.900 199.900 L 287.797 150.200 287.698 199.667 M304.053 190.700 C 304.066 212.865,304.218 233.160,304.389 235.800 C 304.781 241.830,304.863 233.673,304.738 201.400 C 304.693 189.740,304.643 173.495,304.628 165.300 C 304.612 157.105,304.471 150.400,304.314 150.400 C 304.157 150.400,304.040 168.535,304.053 190.700 M186.000 151.700 C 186.000 152.095,192.007 152.200,214.700 152.200 C 230.485 152.200,242.995 152.142,242.500 152.072 C 242.005 152.002,241.600 151.777,241.600 151.572 C 241.600 151.346,230.681 151.200,213.800 151.200 C 191.827 151.200,186.000 151.305,186.000 151.700 M247.746 152.602 C 249.193 153.357,249.414 153.357,248.657 152.600 C 248.327 152.270,247.729 152.001,247.329 152.002 C 246.808 152.004,246.927 152.176,247.746 152.602 M130.099 163.191 C 129.412 164.290,129.474 164.583,130.232 163.825 C 130.580 163.477,130.804 163.013,130.731 162.792 C 130.657 162.572,130.373 162.751,130.099 163.191 M128.499 167.191 C 127.812 168.290,127.874 168.583,128.632 167.825 C 128.980 167.477,129.204 167.013,129.131 166.792 C 129.057 166.572,128.773 166.751,128.499 167.191 M267.600 166.687 C 267.600 166.943,267.780 167.264,268.000 167.400 C 268.220 167.536,268.421 168.042,268.446 168.524 C 268.482 169.189,268.537 169.233,268.674 168.707 C 268.774 168.327,268.573 167.611,268.228 167.118 C 267.883 166.625,267.600 166.431,267.600 166.687 M153.200 167.711 C 153.200 167.787,153.785 168.278,154.500 168.801 C 155.304 169.390,155.584 169.487,155.233 169.055 C 154.700 168.399,153.200 167.407,153.200 167.711 M186.006 168.400 C 186.037 169.400,187.816 169.467,214.687 169.469 C 238.260 169.471,242.610 169.386,241.752 168.941 C 240.743 168.418,185.990 167.886,186.006 168.400 M269.260 170.076 C 269.227 170.668,269.380 171.264,269.600 171.400 C 269.820 171.536,270.000 172.346,270.000 173.200 C 270.000 174.700,270.563 175.593,271.127 174.985 C 271.277 174.823,271.175 174.610,270.900 174.512 C 270.616 174.410,270.400 173.658,270.400 172.767 C 270.400 171.905,270.232 171.200,270.027 171.200 C 269.821 171.200,269.578 170.705,269.487 170.100 L 269.320 169.000 269.260 170.076 M144.684 173.000 C 144.527 173.440,144.281 174.067,144.135 174.393 C 143.947 174.816,144.070 174.787,144.565 174.292 C 144.946 173.911,145.193 173.284,145.113 172.899 C 144.984 172.281,144.935 172.292,144.684 173.000 M126.000 173.200 C 125.683 173.396,125.556 173.689,125.718 173.852 C 125.881 174.014,126.223 173.937,126.480 173.680 C 127.084 173.076,126.747 172.738,126.000 173.200 M251.057 173.200 C 252.043 174.493,253.200 176.863,253.200 177.589 C 253.200 178.009,253.380 178.464,253.600 178.600 C 254.192 178.966,254.106 185.321,253.500 186.001 C 253.075 186.478,253.104 186.482,253.700 186.032 C 254.534 185.401,254.704 179.993,253.949 178.119 C 252.937 175.606,251.832 173.561,251.234 173.094 C 250.698 172.676,250.671 172.693,251.057 173.200 M124.499 177.591 C 124.224 178.030,124.000 178.662,124.000 178.995 C 124.000 179.328,123.820 179.600,123.600 179.600 C 123.380 179.600,123.225 180.185,123.254 180.900 C 123.300 181.990,123.338 182.038,123.488 181.200 C 123.587 180.650,123.832 180.029,124.034 179.820 C 124.235 179.611,124.400 179.131,124.400 178.753 C 124.400 178.376,124.607 177.998,124.860 177.913 C 125.113 177.829,125.247 177.542,125.159 177.276 C 125.057 176.971,124.813 177.087,124.499 177.591 M270.920 181.200 C 270.920 182.410,270.995 182.905,271.087 182.300 C 271.178 181.695,271.178 180.705,271.087 180.100 C 270.995 179.495,270.920 179.990,270.920 181.200 M122.446 182.700 C 122.421 183.195,122.220 183.600,122.000 183.600 C 121.780 183.600,121.614 184.185,121.632 184.900 C 121.649 185.615,121.752 185.930,121.861 185.600 C 121.970 185.270,122.243 184.619,122.469 184.153 C 122.694 183.686,122.792 182.966,122.686 182.553 C 122.524 181.921,122.485 181.945,122.446 182.700 M120.846 186.676 C 120.821 187.158,120.620 187.664,120.400 187.800 C 120.180 187.936,120.014 188.532,120.032 189.124 C 120.049 189.716,120.152 189.930,120.261 189.600 C 120.370 189.270,120.643 188.619,120.869 188.153 C 121.094 187.686,121.192 186.966,121.086 186.553 C 120.920 185.906,120.886 185.924,120.846 186.676 M139.129 187.000 C 138.998 187.440,138.758 188.160,138.596 188.600 C 138.344 189.286,138.398 189.270,138.979 188.493 C 139.351 187.993,139.591 187.273,139.512 186.893 C 139.387 186.292,139.336 186.306,139.129 187.000 M253.246 187.500 C 253.221 187.995,253.020 188.400,252.800 188.400 C 252.580 188.400,252.401 188.805,252.402 189.300 C 252.405 190.115,252.463 190.089,253.017 189.025 C 253.354 188.379,253.554 187.569,253.461 187.225 C 253.358 186.843,253.275 186.950,253.246 187.500 M270.150 188.187 C 270.026 188.510,270.017 189.005,270.131 189.287 C 270.260 189.609,270.349 189.540,270.368 189.100 C 270.386 188.715,270.580 188.400,270.800 188.400 C 271.020 188.400,271.200 188.220,271.200 188.000 C 271.200 187.385,270.403 187.526,270.150 188.187 M119.246 190.900 C 119.221 191.505,119.020 192.000,118.800 192.000 C 118.580 192.000,118.400 192.450,118.400 193.000 C 118.400 193.550,118.220 194.000,118.000 194.000 C 117.780 194.000,117.600 194.450,117.600 195.000 C 117.600 195.550,117.420 196.000,117.200 196.000 C 116.980 196.000,116.800 196.450,116.800 197.000 C 116.800 197.550,116.620 198.000,116.400 198.000 C 116.180 198.000,116.000 198.450,116.000 199.000 C 116.000 199.550,115.820 200.000,115.600 200.000 C 115.380 200.000,115.200 200.450,115.200 201.000 C 115.200 201.550,115.020 202.000,114.800 202.000 C 114.580 202.000,114.400 202.450,114.400 203.000 C 114.400 203.550,114.220 204.000,114.000 204.000 C 113.780 204.000,113.600 204.450,113.600 205.000 C 113.600 205.550,113.420 206.000,113.200 206.000 C 112.980 206.000,112.800 206.439,112.800 206.976 C 112.800 207.513,112.620 208.064,112.400 208.200 C 112.180 208.336,112.000 208.797,112.000 209.224 C 112.000 209.651,111.820 210.000,111.600 210.000 C 111.380 210.000,111.200 210.439,111.200 210.976 C 111.200 211.513,111.020 212.064,110.800 212.200 C 110.580 212.336,110.400 212.797,110.400 213.224 C 110.400 213.651,110.220 214.000,110.000 214.000 C 109.780 214.000,109.621 214.585,109.646 215.300 C 109.674 216.086,109.762 216.283,109.867 215.800 C 109.963 215.360,110.212 214.595,110.421 214.100 C 110.629 213.605,110.980 212.750,111.200 212.200 C 111.420 211.650,111.804 210.705,112.054 210.100 C 112.303 209.495,112.663 208.595,112.854 208.100 C 113.044 207.605,113.380 206.750,113.600 206.200 C 113.820 205.650,114.180 204.750,114.400 204.200 C 114.620 203.650,114.980 202.750,115.200 202.200 C 115.420 201.650,115.756 200.795,115.946 200.300 C 116.137 199.805,116.473 198.950,116.693 198.400 C 116.913 197.850,117.273 196.950,117.493 196.400 C 117.713 195.850,118.073 194.950,118.293 194.400 C 118.513 193.850,118.915 192.929,119.186 192.353 C 119.457 191.776,119.592 190.966,119.486 190.553 C 119.351 190.025,119.279 190.130,119.246 190.900 M269.700 191.085 C 269.425 191.676,269.200 192.396,269.200 192.685 C 269.200 192.974,269.020 193.568,268.800 194.005 C 268.580 194.442,268.220 195.158,268.000 195.595 C 267.413 196.760,267.512 197.069,268.187 196.176 C 268.510 195.749,268.780 195.085,268.787 194.700 C 268.794 194.315,268.980 194.000,269.200 194.000 C 269.420 194.000,269.600 193.475,269.600 192.833 C 269.600 192.192,269.801 191.600,270.046 191.518 C 270.291 191.436,270.426 191.064,270.346 190.690 C 270.233 190.164,270.087 190.253,269.700 191.085 M137.654 191.076 C 137.625 191.558,137.420 192.064,137.200 192.200 C 136.980 192.336,136.800 192.629,136.800 192.852 C 136.800 193.075,137.083 192.975,137.428 192.629 C 137.773 192.284,137.978 191.596,137.882 191.101 C 137.709 190.201,137.709 190.201,137.654 191.076 M249.200 193.200 C 248.650 193.630,248.397 193.986,248.638 193.991 C 248.879 193.996,249.402 193.640,249.800 193.200 C 250.712 192.192,250.488 192.192,249.200 193.200 M136.480 194.080 C 136.216 194.344,136.000 194.873,136.000 195.256 C 136.000 195.639,135.820 196.064,135.600 196.200 C 135.380 196.336,135.200 196.629,135.200 196.852 C 135.200 197.075,135.470 196.987,135.800 196.657 C 136.130 196.327,136.400 195.720,136.400 195.309 C 136.400 194.897,136.616 194.344,136.880 194.080 C 137.144 193.816,137.270 193.600,137.160 193.600 C 137.050 193.600,136.744 193.816,136.480 194.080 M242.400 195.800 C 242.122 196.135,242.079 196.400,242.302 196.400 C 242.522 196.400,242.926 196.130,243.200 195.800 C 243.478 195.465,243.521 195.200,243.298 195.200 C 243.078 195.200,242.674 195.470,242.400 195.800 M195.055 196.600 C 194.929 196.930,194.922 197.200,195.041 197.200 C 195.160 197.200,195.527 196.930,195.857 196.600 C 196.378 196.080,196.379 196.000,195.871 196.000 C 195.549 196.000,195.182 196.270,195.055 196.600 M189.800 199.320 C 188.496 200.918,188.390 201.254,189.515 200.225 C 190.222 199.579,190.800 198.994,190.800 198.925 C 190.800 198.622,190.165 198.874,189.800 199.320 M262.425 203.769 L 261.050 205.400 262.605 203.913 C 263.460 203.096,264.079 202.362,263.980 202.283 C 263.881 202.203,263.181 202.872,262.425 203.769 M244.800 211.400 C 244.162 212.169,244.782 212.170,246.254 211.402 L 247.400 210.805 246.349 210.802 C 245.771 210.801,245.074 211.070,244.800 211.400 M233.700 211.865 C 232.907 212.185,233.119 212.800,234.024 212.800 C 234.477 212.800,234.744 212.633,234.618 212.429 C 234.491 212.224,234.796 211.979,235.294 211.883 C 236.141 211.720,236.135 211.707,235.200 211.686 C 234.650 211.673,233.975 211.754,233.700 211.865 M211.700 212.699 C 215.385 212.765,221.415 212.765,225.100 212.699 C 228.785 212.633,225.770 212.579,218.400 212.579 C 211.030 212.579,208.015 212.633,211.700 212.699 M242.484 213.415 C 242.049 213.909,242.119 214.000,242.935 214.000 C 243.467 214.000,244.126 213.730,244.400 213.400 C 245.090 212.569,243.217 212.584,242.484 213.415 M251.743 216.163 C 252.215 217.129,252.669 217.854,252.752 217.774 C 252.960 217.576,251.664 214.887,251.233 214.620 C 251.042 214.503,251.272 215.197,251.743 216.163 M108.832 217.100 C 108.814 217.595,108.620 218.000,108.400 218.000 C 108.180 218.000,108.021 218.585,108.046 219.300 C 108.074 220.086,108.162 220.283,108.267 219.800 C 108.363 219.360,108.633 218.613,108.867 218.139 C 109.101 217.666,109.196 217.036,109.078 216.739 C 108.957 216.435,108.849 216.592,108.832 217.100 M127.129 217.400 C 126.998 217.840,126.758 218.560,126.596 219.000 C 126.344 219.686,126.398 219.670,126.979 218.893 C 127.351 218.393,127.591 217.673,127.512 217.293 C 127.387 216.692,127.336 216.706,127.129 217.400 M126.107 220.500 C 125.567 221.190,125.191 222.853,125.637 222.577 C 125.837 222.454,126.000 222.039,126.000 221.656 C 126.000 221.273,126.216 220.744,126.480 220.480 C 126.744 220.216,126.856 220.000,126.729 220.000 C 126.602 220.000,126.322 220.225,126.107 220.500 M254.828 221.470 C 256.028 223.636,256.649 224.145,255.594 222.098 C 255.112 221.162,254.551 220.294,254.349 220.168 C 254.146 220.043,254.362 220.629,254.828 221.470 M107.246 221.300 C 107.221 221.905,107.020 222.400,106.800 222.400 C 106.580 222.400,106.400 222.850,106.400 223.400 C 106.400 223.950,106.220 224.400,106.000 224.400 C 105.780 224.400,105.600 224.850,105.600 225.400 C 105.600 225.950,105.420 226.400,105.200 226.400 C 104.980 226.400,104.800 226.850,104.800 227.400 C 104.800 227.950,104.620 228.400,104.400 228.400 C 104.180 228.400,104.000 228.850,104.000 229.400 C 104.000 229.950,103.820 230.400,103.600 230.400 C 103.380 230.400,103.200 230.850,103.200 231.400 C 103.200 231.950,103.020 232.400,102.800 232.400 C 102.580 232.400,102.400 232.850,102.400 233.400 C 102.400 233.950,102.220 234.400,102.000 234.400 C 101.780 234.400,101.600 234.850,101.600 235.400 C 101.600 235.950,101.420 236.400,101.200 236.400 C 100.980 236.400,100.800 236.850,100.800 237.400 C 100.800 237.950,100.620 238.400,100.400 238.400 C 100.180 238.400,100.000 238.850,100.000 239.400 C 100.000 239.950,99.820 240.400,99.600 240.400 C 99.380 240.400,99.200 240.839,99.200 241.376 C 99.200 241.913,99.020 242.464,98.800 242.600 C 98.580 242.736,98.400 243.197,98.400 243.624 C 98.400 244.051,98.220 244.400,98.000 244.400 C 97.780 244.400,97.621 244.985,97.646 245.700 C 97.674 246.486,97.762 246.683,97.867 246.200 C 97.963 245.760,98.212 244.995,98.421 244.500 C 98.629 244.005,98.980 243.150,99.200 242.600 C 99.420 242.050,99.804 241.105,100.054 240.500 C 100.303 239.895,100.663 238.995,100.854 238.500 C 101.044 238.005,101.380 237.150,101.600 236.600 C 101.820 236.050,102.180 235.150,102.400 234.600 C 102.620 234.050,102.980 233.150,103.200 232.600 C 103.420 232.050,103.756 231.195,103.946 230.700 C 104.137 230.205,104.473 229.350,104.693 228.800 C 104.913 228.250,105.273 227.350,105.493 226.800 C 105.713 226.250,106.073 225.350,106.293 224.800 C 106.513 224.250,106.915 223.329,107.186 222.753 C 107.457 222.176,107.592 221.366,107.486 220.953 C 107.351 220.425,107.279 220.530,107.246 221.300 M124.480 224.480 C 124.216 224.744,124.025 225.419,124.054 225.980 L 124.109 227.000 124.293 226.000 C 124.394 225.450,124.661 224.775,124.887 224.500 C 125.411 223.862,125.113 223.847,124.480 224.480 M257.739 226.458 C 258.467 227.831,259.315 229.038,259.624 229.141 C 260.002 229.267,259.957 229.100,259.487 228.630 C 259.103 228.246,258.432 227.148,257.996 226.190 C 257.559 225.232,257.025 224.339,256.809 224.206 C 256.593 224.072,257.011 225.086,257.739 226.458 M122.864 228.672 C 122.580 229.512,122.155 230.650,121.920 231.200 C 121.685 231.750,121.337 232.605,121.146 233.100 C 120.956 233.595,120.644 234.405,120.454 234.900 C 119.921 236.284,119.357 237.682,118.800 239.000 C 118.521 239.660,118.161 240.560,118.000 241.000 C 117.839 241.440,117.519 242.250,117.290 242.800 C 116.538 244.601,116.419 245.200,116.813 245.200 C 117.026 245.200,117.200 244.750,117.200 244.200 C 117.200 243.650,117.380 243.200,117.600 243.200 C 117.820 243.200,118.000 242.750,118.000 242.200 C 118.000 241.650,118.180 241.200,118.400 241.200 C 118.620 241.200,118.800 240.750,118.800 240.200 C 118.800 239.650,118.980 239.200,119.200 239.200 C 119.420 239.200,119.600 238.750,119.600 238.200 C 119.600 237.650,119.780 237.200,120.000 237.200 C 120.220 237.200,120.400 236.761,120.400 236.224 C 120.400 235.687,120.580 235.136,120.800 235.000 C 121.020 234.864,121.200 234.403,121.200 233.976 C 121.200 233.549,121.380 233.200,121.600 233.200 C 121.820 233.200,122.000 232.838,122.000 232.395 C 122.000 231.952,122.159 231.277,122.353 230.895 C 123.362 228.912,123.678 228.035,123.537 227.611 C 123.451 227.354,123.148 227.831,122.864 228.672 M260.543 231.394 C 261.015 232.377,261.532 233.185,261.694 233.190 C 262.030 233.201,260.480 230.097,260.002 229.801 C 259.829 229.694,260.072 230.411,260.543 231.394 M262.009 233.871 C 262.014 234.052,262.370 234.650,262.800 235.200 C 263.230 235.750,263.590 236.380,263.600 236.600 C 263.610 236.820,263.983 237.450,264.429 238.000 C 265.020 238.728,264.936 238.401,264.120 236.800 C 263.025 234.650,261.991 233.215,262.009 233.871 M266.143 240.963 C 266.615 241.929,267.069 242.654,267.152 242.574 C 267.360 242.376,266.064 239.687,265.633 239.420 C 265.442 239.303,265.672 239.997,266.143 240.963 M247.337 240.996 C 247.592 241.545,247.941 241.995,248.114 241.997 C 248.482 242.001,247.763 240.548,247.235 240.222 C 247.037 240.099,247.083 240.448,247.337 240.996 M269.228 246.270 C 270.428 248.436,271.049 248.945,269.994 246.898 C 269.512 245.962,268.951 245.094,268.749 244.968 C 268.546 244.843,268.762 245.429,269.228 246.270 M115.667 246.793 C 115.377 247.450,115.222 248.305,115.323 248.693 C 115.434 249.119,115.526 248.946,115.554 248.257 C 115.585 247.476,115.770 247.180,116.138 247.321 C 116.523 247.468,116.623 247.254,116.491 246.563 C 116.263 245.370,116.302 245.359,115.667 246.793 M250.800 246.907 C 250.800 247.288,250.958 247.600,251.150 247.600 C 251.343 247.600,251.788 248.185,252.141 248.900 C 252.493 249.615,252.786 249.965,252.791 249.679 C 252.796 249.392,252.350 248.495,251.800 247.686 C 251.151 246.731,250.800 246.458,250.800 246.907 M96.832 247.476 C 96.814 247.958,96.620 248.464,96.400 248.600 C 96.180 248.736,96.025 249.422,96.054 250.124 C 96.100 251.184,96.136 251.230,96.271 250.400 C 96.360 249.850,96.627 249.013,96.863 248.539 C 97.100 248.066,97.196 247.436,97.078 247.139 C 96.954 246.829,96.850 246.972,96.832 247.476 " stroke="none" fill="#418c8c" fill-rule="evenodd"></path><path id="path4" d="M286.806 151.300 C 286.811 152.028,286.886 152.085,287.200 151.600 C 287.701 150.824,287.701 150.400,287.200 150.400 C 286.980 150.400,286.803 150.805,286.806 151.300 M178.300 180.491 C 178.528 180.771,178.802 181.360,178.911 181.800 C 179.066 182.431,179.117 182.377,179.154 181.543 C 179.182 180.900,178.943 180.387,178.543 180.234 C 178.049 180.044,177.989 180.107,178.300 180.491 M180.700 186.891 C 180.928 187.171,181.202 187.760,181.311 188.200 C 181.466 188.831,181.517 188.777,181.554 187.943 C 181.582 187.300,181.343 186.787,180.943 186.634 C 180.449 186.444,180.389 186.507,180.700 186.891 M183.761 194.397 C 183.786 195.043,184.049 195.415,184.508 195.456 C 184.957 195.496,185.002 195.451,184.632 195.335 C 184.311 195.233,183.975 194.757,183.886 194.275 C 183.751 193.554,183.730 193.576,183.761 194.397 M194.800 196.333 C 194.800 196.590,194.215 196.827,193.500 196.860 C 192.221 196.919,192.219 196.923,193.349 197.091 C 194.495 197.262,195.591 196.658,195.073 196.140 C 194.923 195.990,194.800 196.077,194.800 196.333 M209.728 196.300 C 215.629 196.362,225.169 196.362,230.928 196.300 C 236.688 196.237,231.860 196.186,220.200 196.186 C 208.540 196.186,203.828 196.237,209.728 196.300 M152.561 206.000 C 152.561 209.410,152.622 210.805,152.697 209.100 C 152.772 207.395,152.772 204.605,152.697 202.900 C 152.622 201.195,152.561 202.590,152.561 206.000 M248.900 211.076 C 249.285 211.176,249.915 211.176,250.300 211.076 C 250.685 210.975,250.370 210.893,249.600 210.893 C 248.830 210.893,248.515 210.975,248.900 211.076 M238.307 211.890 C 239.026 211.979,240.106 211.977,240.707 211.886 C 241.308 211.795,240.720 211.722,239.400 211.724 C 238.080 211.726,237.588 211.801,238.307 211.890 M135.524 212.699 C 138.673 212.767,143.713 212.767,146.724 212.699 C 149.736 212.631,147.160 212.576,141.000 212.576 C 134.840 212.576,132.376 212.632,135.524 212.699 M241.200 213.200 C 241.200 213.420,240.720 213.600,240.133 213.600 C 239.547 213.600,239.178 213.712,239.315 213.848 C 239.707 214.240,242.449 213.603,242.188 213.180 C 241.878 212.678,241.200 212.692,241.200 213.200 M202.984 232.600 C 202.984 242.720,203.036 246.803,203.100 241.673 C 203.163 236.542,203.163 228.262,203.100 223.273 C 203.036 218.283,202.984 222.480,202.984 232.600 M179.914 235.994 C 180.007 236.628,180.379 237.259,180.741 237.397 C 181.269 237.598,181.301 237.547,180.900 237.144 C 180.625 236.867,180.400 236.327,180.400 235.944 C 180.400 235.561,180.253 235.156,180.072 235.045 C 179.892 234.933,179.821 235.361,179.914 235.994 M182.446 242.457 C 182.418 243.100,182.657 243.613,183.057 243.766 C 183.551 243.956,183.611 243.893,183.300 243.509 C 183.072 243.229,182.798 242.640,182.689 242.200 C 182.534 241.569,182.483 241.623,182.446 242.457 " stroke="none" fill="#549494" fill-rule="evenodd"></path></g></svg>